<?xml version="1.0" encoding="utf-8"?>
<!-- Generator: Adobe Illustrator 15.1.0, SVG Export Plug-In . SVG Version: 6.00 Build 0)  -->
<!DOCTYPE svg PUBLIC "-//W3C//DTD SVG 1.1//EN" "http://www.w3.org/Graphics/SVG/1.1/DTD/svg11.dtd">
<svg version="1.1" id="Layer_1" xmlns="http://www.w3.org/2000/svg" xmlns:xlink="http://www.w3.org/1999/xlink" x="0px" y="0px"
	 width="55px" height="69px" viewBox="0 0 55 69" enable-background="new 0 0 55 69" xml:space="preserve">
<g>
	<path fill="#2B5381" d="M52,30.3l-0.358-0.101C51.758,30.24,51.875,30.275,52,30.3z"/>
	<path fill="#FFFFFF" d="M12.976,14.701l3.714,0.54l-2.688,2.622l0.635,3.702l-3.323-1.747l-3.326,1.747l0.636-3.702l-2.688-2.622
		l3.716-0.54l1.663-3.369L12.976,14.701z M29.163,10.302l-1.664-3.369l-1.661,3.369l-3.717,0.541l2.688,2.622l-0.634,3.7
		l3.324-1.746l3.326,1.746l-0.635-3.7l2.691-2.622L29.163,10.302z M43.687,11.332l-1.664,3.369l-3.716,0.54L41,17.863l-0.637,3.702
		l3.323-1.747l3.324,1.747l-0.636-3.702l2.693-2.622l-3.717-0.54L43.687,11.332z"/>
	<path fill="#265482" d="M53.479,7.413l-0.601-0.171l-24.44-6.923c-0.168-0.066-0.341-0.117-0.522-0.146
		c-0.138-0.024-0.282-0.039-0.427-0.039c-0.132,0-0.262,0.013-0.392,0.033C26.892,0.2,26.69,0.256,26.502,0.336L2.122,7.24
		L1.519,7.413C0.627,7.798,0,8.683,0,9.717v18.121c0,1.387,1.125,2.51,2.509,2.51c0.168,0,0.331-0.018,0.489-0.049
		c0.126-0.024,0.243-0.06,0.361-0.102l23.239-6.591c0.279-0.106,0.584-0.17,0.899-0.17c0.317,0,0.623,0.063,0.902,0.17l23.241,6.592
		l0.36,0.101c0.157,0.032,0.322,0.049,0.492,0.049c1.382,0,2.506-1.123,2.506-2.51V9.717C54.999,8.683,54.372,7.798,53.479,7.413z
		 M47.011,21.565l-3.324-1.747l-3.323,1.747L41,17.863l-2.692-2.622l3.715-0.54l1.664-3.369l1.664,3.369l3.717,0.54l-2.693,2.622
		L47.011,21.565z M24.175,17.164l0.634-3.7l-2.688-2.622l3.717-0.541l1.661-3.369l1.663,3.369l3.718,0.541l-2.693,2.622l0.637,3.7
		l-3.325-1.746L24.175,17.164z M14.636,21.565l-3.323-1.747l-3.326,1.747l0.636-3.702l-2.688-2.622l3.716-0.54l1.663-3.369
		l1.662,3.369l3.714,0.54l-2.688,2.622L14.636,21.565z"/>
	<path fill="#D32534" d="M5.346,32.988l5.02-1.424v21.273c0,1.385-1.124,2.511-2.511,2.511c-1.386,0-2.51-1.128-2.51-2.511
		L5.346,32.988L5.346,32.988z M15.168,59.596c0,1.388,1.123,2.511,2.509,2.511c1.388,0,2.51-1.123,2.51-2.511V28.779l-5.02,1.424
		L15.168,59.596L15.168,59.596z M44.636,31.564v21.274c0,1.384,1.122,2.511,2.509,2.511c1.386,0,2.509-1.127,2.509-2.511V32.988
		L44.636,31.564z M34.813,59.596c0,1.388,1.124,2.511,2.507,2.511c1.39,0,2.511-1.123,2.511-2.511V30.203l-5.016-1.425v30.817
		H34.813z M28.343,26.944l-0.353-0.099c-0.162-0.032-0.325-0.048-0.493-0.048c-0.166,0-0.332,0.018-0.489,0.048l-0.359,0.101
		l-1.661,0.471v1.888v37.05c0,1.388,1.124,2.512,2.51,2.512c1.389,0,2.508-1.124,2.508-2.512V29.306v-1.889L28.343,26.944z"/>
</g>
</svg>
