<?xml version="1.0" encoding="utf-8"?>
<!-- Generator: Adobe Illustrator 15.1.0, SVG Export Plug-In . SVG Version: 6.00 Build 0)  -->
<!DOCTYPE svg PUBLIC "-//W3C//DTD SVG 1.1//EN" "http://www.w3.org/Graphics/SVG/1.1/DTD/svg11.dtd">
<svg version="1.1" id="Layer_1" xmlns="http://www.w3.org/2000/svg" xmlns:xlink="http://www.w3.org/1999/xlink" x="0px" y="0px"
	 width="155px" height="11px" viewBox="0 0 155 11" enable-background="new 0 0 155 11" xml:space="preserve">
<g>
	<polygon fill="#235280" points="77.979,0 79.768,3.622 83.764,4.201 80.871,7.02 81.553,11 77.979,9.12 74.405,11 75.088,7.02 
		72.197,4.201 76.191,3.622 	"/>
	<polygon fill="#235280" points="113.697,0 115.486,3.622 119.482,4.201 116.593,7.02 117.271,11 113.697,9.12 110.126,11 
		110.809,7.02 107.916,4.201 111.912,3.622 	"/>
	<polygon fill="#235280" points="42.259,0 44.046,3.622 48.043,4.201 45.152,7.02 45.834,11 42.259,9.12 38.686,11 39.367,7.02 
		36.477,4.201 40.473,3.622 	"/>
	<polygon fill="#235280" points="6.216,0 8.004,3.622 12,4.201 9.11,7.02 9.793,11 6.216,9.12 2.644,11 3.325,7.02 0.435,4.201 
		4.43,3.622 	"/>
	<polygon fill="#235280" points="148.779,0 150.568,3.622 154.564,4.201 151.675,7.02 152.355,10.999 148.779,9.12 145.208,10.999 
		145.891,7.02 143,4.201 146.996,3.622 	"/>
</g>
</svg>
