<?xml version="1.0" encoding="utf-8"?>
<!-- Generator: Adobe Illustrator 15.1.0, SVG Export Plug-In . SVG Version: 6.00 Build 0)  -->
<!DOCTYPE svg PUBLIC "-//W3C//DTD SVG 1.1//EN" "http://www.w3.org/Graphics/SVG/1.1/DTD/svg11.dtd">
<svg version="1.1" id="Layer_1" xmlns="http://www.w3.org/2000/svg" xmlns:xlink="http://www.w3.org/1999/xlink" x="0px" y="0px"
	 width="176px" height="238px" viewBox="0 0 176 238" enable-background="new 0 0 176 238" xml:space="preserve">
<path fill="#45A3D4" d="M115.014,104.964c-0.296-1.641-1.238-3.058-2.558-3.962c-0.974-0.671-2.146-1.063-3.427-1.063H66.963
	c-1.368,0-2.626,0.458-3.643,1.224c-1.275,0.961-2.162,2.407-2.385,4.069c-0.038,0.269-0.062,0.542-0.062,0.823v25.898
	c0,0.189,0.014,0.369,0.028,0.551c0.15,1.68,0.974,3.165,2.204,4.18c1.049,0.855,2.395,1.383,3.857,1.383h42.07
	c1.368,0,2.632-0.459,3.649-1.226c1.278-0.958,2.158-2.405,2.381-4.067c0.041-0.27,0.064-0.543,0.064-0.822v-25.898
	C115.115,105.682,115.077,105.318,115.014,104.964z M72.88,104.661h30.218h3.37L87.75,116.095l-18.717-11.434H72.88z
	 M110.414,133.348h-3.471h-3.851H72.88h-4.326h-2.991v-3.699v-3.646v-13.996v-3.938l17.663,10.788l4.522,2.763l4.521-2.763
	l18.141-11.083v4.231v13.997v3.938L110.414,133.348L110.414,133.348L110.414,133.348z"/>
<path fill="#45A3D4" d="M160.59,38.088c-0.076-0.033-0.167-0.058-0.26-0.079l-4.736-1.43l-2.256-7.236
	c-0.021-0.108-0.062-0.215-0.097-0.31c-0.138-0.312-0.356-0.514-0.607-0.512c-0.25-0.004-0.472,0.202-0.604,0.512
	c-0.038,0.093-0.072,0.198-0.1,0.31l-2.259,7.232l-4.737,1.436c-0.088,0.016-0.177,0.046-0.257,0.074
	c-0.258,0.111-0.43,0.29-0.43,0.493c0,0.204,0.172,0.379,0.431,0.492c0.077,0.029,0.168,0.056,0.266,0.074l4.733,1.432l2.255,7.236
	c0.023,0.109,0.06,0.217,0.101,0.312c0.134,0.312,0.354,0.511,0.606,0.511c0.244,0,0.471-0.204,0.604-0.511
	c0.04-0.09,0.069-0.198,0.097-0.312l2.258-7.236l4.732-1.43c0.095-0.017,0.181-0.047,0.262-0.078
	c0.26-0.109,0.432-0.289,0.432-0.492C161.02,38.372,160.852,38.197,160.59,38.088z"/>
<path fill="#45A3D4" d="M138.684,75.527c-0.041-0.015-0.08-0.026-0.123-0.036l-2.235-0.676l-1.054-3.401
	c-0.017-0.053-0.025-0.1-0.041-0.147c-0.065-0.149-0.166-0.24-0.289-0.24s-0.224,0.096-0.287,0.24
	c-0.018,0.041-0.038,0.097-0.043,0.147l-1.053,3.401l-2.234,0.676c-0.04,0.009-0.083,0.018-0.125,0.037
	c-0.124,0.052-0.203,0.133-0.203,0.23c-0.002,0.097,0.08,0.181,0.203,0.234c0.042,0.015,0.08,0.028,0.125,0.041l2.232,0.675
	l1.055,3.402c0.015,0.054,0.023,0.1,0.041,0.148c0.065,0.151,0.166,0.238,0.287,0.241c0.121-0.003,0.226-0.096,0.289-0.241
	c0.018-0.042,0.035-0.094,0.043-0.148l1.052-3.402l2.237-0.674c0.041-0.013,0.086-0.018,0.123-0.042
	c0.125-0.046,0.203-0.131,0.203-0.232C138.885,75.662,138.805,75.579,138.684,75.527z"/>
<path fill="#45A3D4" d="M125.102,17.827c0.115,0,0.224-0.097,0.285-0.238c0.02-0.043,0.043-0.098,0.045-0.151l1.062-3.403
	l2.228-0.677c0.045-0.012,0.088-0.017,0.123-0.04c0.123-0.05,0.206-0.134,0.206-0.233c-0.002-0.097-0.077-0.18-0.206-0.233
	c-0.039-0.015-0.07-0.027-0.123-0.041l-2.226-0.677l-1.063-3.402c-0.012-0.051-0.024-0.096-0.043-0.152
	c-0.062-0.144-0.164-0.237-0.285-0.237c-0.117,0-0.223,0.097-0.287,0.237c-0.021,0.045-0.035,0.098-0.047,0.152l-1.061,3.403
	l-2.227,0.677c-0.041,0.012-0.088,0.021-0.125,0.04c-0.125,0.054-0.199,0.135-0.199,0.233s0.078,0.18,0.199,0.233
	c0.039,0.015,0.082,0.028,0.125,0.04l2.227,0.676l1.062,3.403c0.015,0.053,0.023,0.1,0.043,0.149
	C124.877,17.73,124.98,17.827,125.102,17.827z"/>
<path fill="#45A3D4" d="M15.408,199.914c0.078,0.031,0.167,0.059,0.261,0.077l4.735,1.431l2.257,7.237
	c0.021,0.108,0.059,0.215,0.095,0.31c0.137,0.312,0.357,0.516,0.607,0.514c0.25,0.004,0.474-0.2,0.608-0.514
	c0.038-0.095,0.073-0.199,0.098-0.31l2.258-7.235l4.735-1.433c0.089-0.017,0.177-0.048,0.257-0.074
	c0.26-0.108,0.429-0.291,0.429-0.492c0-0.202-0.169-0.379-0.429-0.491c-0.078-0.031-0.167-0.058-0.265-0.074l-4.733-1.433
	l-2.254-7.237c-0.024-0.106-0.059-0.215-0.1-0.31c-0.133-0.312-0.354-0.514-0.605-0.514c-0.247,0-0.472,0.204-0.607,0.514
	c-0.039,0.091-0.07,0.197-0.094,0.31l-2.26,7.237l-4.73,1.429c-0.096,0.019-0.182,0.047-0.263,0.08
	c-0.259,0.108-0.432,0.289-0.432,0.491C14.98,199.63,15.147,199.807,15.408,199.914z"/>
<path fill="#45A3D4" d="M37.315,162.477c0.042,0.017,0.08,0.024,0.124,0.035l2.234,0.674l1.054,3.403
	c0.017,0.054,0.026,0.101,0.042,0.146c0.066,0.148,0.165,0.24,0.288,0.24s0.222-0.098,0.288-0.24
	c0.017-0.043,0.039-0.096,0.043-0.146l1.055-3.403l2.231-0.674c0.041-0.009,0.083-0.019,0.125-0.037
	c0.125-0.054,0.204-0.136,0.204-0.229c0.002-0.099-0.08-0.181-0.204-0.231c-0.042-0.019-0.079-0.027-0.125-0.041l-2.23-0.679
	l-1.056-3.399c-0.014-0.056-0.024-0.103-0.041-0.146c-0.066-0.15-0.166-0.24-0.288-0.242c-0.122,0.002-0.226,0.098-0.288,0.242
	c-0.016,0.039-0.037,0.092-0.042,0.146l-1.053,3.399l-2.237,0.679c-0.041,0.014-0.085,0.018-0.123,0.041
	c-0.125,0.047-0.204,0.131-0.204,0.229C37.113,162.339,37.194,162.423,37.315,162.477z"/>
<path fill="#45A3D4" d="M50.897,220.177c-0.117,0-0.222,0.095-0.286,0.237c-0.018,0.04-0.042,0.097-0.042,0.15l-1.062,3.4
	l-2.228,0.678c-0.042,0.015-0.087,0.02-0.123,0.041c-0.124,0.053-0.206,0.135-0.206,0.231c0.001,0.096,0.077,0.18,0.206,0.233
	c0.041,0.017,0.071,0.026,0.123,0.039l2.225,0.677l1.064,3.403c0.013,0.051,0.025,0.099,0.043,0.15
	c0.064,0.145,0.165,0.236,0.286,0.236c0.116,0,0.222-0.098,0.287-0.236c0.019-0.046,0.035-0.098,0.046-0.15l1.06-3.404l2.226-0.678
	c0.042-0.011,0.088-0.02,0.126-0.037c0.123-0.055,0.2-0.14,0.2-0.233c0-0.099-0.079-0.181-0.2-0.233
	c-0.04-0.016-0.081-0.025-0.126-0.039l-2.226-0.677l-1.062-3.401c-0.014-0.054-0.025-0.103-0.043-0.148
	C51.121,220.271,51.015,220.177,50.897,220.177z"/>
</svg>
