<?xml version="1.0" encoding="utf-8"?>
<!-- Generator: Adobe Illustrator 15.1.0, SVG Export Plug-In . SVG Version: 6.00 Build 0)  -->
<!DOCTYPE svg PUBLIC "-//W3C//DTD SVG 1.1//EN" "http://www.w3.org/Graphics/SVG/1.1/DTD/svg11.dtd">
<svg version="1.1" id="Layer_1" xmlns="http://www.w3.org/2000/svg" xmlns:xlink="http://www.w3.org/1999/xlink" x="0px" y="0px"
	 width="176px" height="238px" viewBox="0 0 176 238" enable-background="new 0 0 176 238" xml:space="preserve">
<path fill="#45A3D4" d="M115.384,109.178c-0.299-1.656-1.254-3.085-2.592-3.999c-0.987-0.676-2.176-1.072-3.472-1.072H66.676
	c-1.387,0-2.664,0.462-3.694,1.235c-1.293,0.969-2.192,2.428-2.418,4.106c-0.038,0.271-0.063,0.547-0.063,0.83v26.133
	c0,0.192,0.013,0.373,0.029,0.555c0.152,1.695,0.987,3.194,2.234,4.218c1.064,0.864,2.428,1.395,3.911,1.395h42.646
	c1.386,0,2.668-0.464,3.699-1.235c1.297-0.968,2.189-2.429,2.414-4.106c0.041-0.271,0.066-0.549,0.066-0.831v-26.133
	C115.488,109.902,115.449,109.535,115.384,109.178z M72.674,108.872h30.631h3.416l-18.974,11.537l-18.973-11.537H72.674z
	 M110.721,137.816h-3.516h-3.903H72.674h-4.386h-3.031v-3.731v-3.681v-14.122v-3.973l17.904,10.886l4.584,2.787l4.584-2.787
	l18.388-11.183v4.269v14.123v3.975L110.721,137.816L110.721,137.816L110.721,137.816z"/>
<path fill="#45A3D4" d="M161.585,39.697c-0.078-0.033-0.169-0.059-0.263-0.08l-4.801-1.442l-2.287-7.302
	c-0.023-0.11-0.061-0.217-0.098-0.313c-0.139-0.314-0.361-0.518-0.615-0.516c-0.254-0.004-0.479,0.204-0.614,0.516
	c-0.04,0.094-0.074,0.201-0.101,0.313l-2.289,7.298l-4.801,1.448c-0.09,0.016-0.18,0.047-0.261,0.075
	c-0.261,0.112-0.435,0.293-0.435,0.498s0.174,0.382,0.436,0.496c0.078,0.03,0.17,0.057,0.268,0.075l4.799,1.445l2.285,7.302
	c0.025,0.11,0.06,0.218,0.101,0.314c0.136,0.314,0.36,0.516,0.616,0.516c0.248,0,0.476-0.206,0.613-0.516
	c0.041-0.091,0.071-0.2,0.098-0.314l2.289-7.302l4.797-1.443c0.096-0.016,0.183-0.047,0.265-0.079
	c0.263-0.11,0.437-0.292,0.437-0.496C162.02,39.984,161.85,39.807,161.585,39.697z"/>
<path fill="#45A3D4" d="M139.379,78.475c-0.043-0.015-0.082-0.027-0.126-0.037l-2.265-0.681l-1.068-3.432
	c-0.016-0.054-0.027-0.101-0.043-0.149c-0.066-0.151-0.167-0.243-0.292-0.243s-0.226,0.097-0.292,0.243
	c-0.016,0.042-0.038,0.097-0.043,0.149l-1.068,3.432l-2.264,0.681c-0.041,0.009-0.085,0.018-0.127,0.038
	c-0.126,0.052-0.206,0.134-0.206,0.233c-0.002,0.097,0.081,0.181,0.206,0.236c0.042,0.015,0.081,0.028,0.127,0.041l2.262,0.682
	l1.07,3.432c0.014,0.054,0.025,0.101,0.041,0.15c0.068,0.153,0.169,0.241,0.292,0.244c0.123-0.003,0.229-0.097,0.293-0.244
	c0.017-0.042,0.036-0.095,0.043-0.15l1.067-3.432l2.268-0.681c0.041-0.013,0.086-0.017,0.125-0.042
	c0.126-0.047,0.205-0.132,0.205-0.234C139.583,78.611,139.502,78.527,139.379,78.475z"/>
<path fill="#45A3D4" d="M125.611,18.253c0.117,0,0.225-0.097,0.289-0.241c0.019-0.042,0.043-0.098,0.045-0.152l1.076-3.434
	l2.258-0.683c0.044-0.012,0.088-0.017,0.125-0.04c0.125-0.051,0.209-0.136,0.209-0.235c-0.002-0.098-0.08-0.182-0.209-0.237
	c-0.041-0.014-0.073-0.027-0.125-0.041l-2.256-0.682l-1.078-3.434c-0.012-0.051-0.026-0.097-0.045-0.153
	c-0.064-0.146-0.166-0.24-0.289-0.24c-0.119,0-0.225,0.098-0.291,0.24c-0.019,0.045-0.036,0.098-0.047,0.153l-1.075,3.435
	l-2.255,0.682c-0.043,0.012-0.09,0.021-0.127,0.04c-0.127,0.055-0.203,0.137-0.203,0.237c0,0.097,0.08,0.18,0.203,0.235
	c0.039,0.015,0.082,0.028,0.127,0.04l2.255,0.682l1.079,3.434c0.013,0.053,0.024,0.101,0.043,0.151
	C125.383,18.156,125.49,18.253,125.611,18.253z"/>
<path fill="#45A3D4" d="M14.415,206.986c0.079,0.033,0.169,0.059,0.263,0.078l4.8,1.443l2.288,7.303
	c0.023,0.109,0.06,0.217,0.097,0.312c0.139,0.314,0.362,0.52,0.615,0.518c0.254,0.004,0.481-0.203,0.616-0.518
	c0.04-0.094,0.075-0.199,0.1-0.312l2.289-7.299l4.8-1.447c0.09-0.016,0.18-0.047,0.261-0.074c0.262-0.111,0.434-0.295,0.434-0.498
	c0-0.204-0.172-0.383-0.434-0.496c-0.079-0.03-0.17-0.057-0.268-0.074l-4.798-1.445l-2.285-7.303
	c-0.025-0.109-0.059-0.218-0.1-0.312c-0.135-0.314-0.36-0.518-0.615-0.518c-0.25,0-0.477,0.206-0.615,0.518
	c-0.04,0.09-0.071,0.199-0.096,0.312l-2.291,7.303l-4.795,1.442c-0.096,0.017-0.183,0.047-0.265,0.079
	c-0.263,0.109-0.438,0.291-0.438,0.496C13.981,206.699,14.15,206.877,14.415,206.986z"/>
<path fill="#45A3D4" d="M36.622,168.209c0.043,0.016,0.081,0.025,0.126,0.036l2.263,0.681l1.07,3.434
	c0.016,0.054,0.027,0.101,0.043,0.148c0.067,0.15,0.167,0.242,0.292,0.242s0.224-0.098,0.292-0.242
	c0.016-0.043,0.039-0.098,0.044-0.148l1.069-3.434l2.262-0.681c0.041-0.009,0.084-0.019,0.126-0.037
	c0.127-0.054,0.207-0.136,0.207-0.233c0.002-0.097-0.081-0.181-0.207-0.235c-0.042-0.017-0.08-0.028-0.126-0.041l-2.261-0.683
	l-1.07-3.432c-0.014-0.055-0.026-0.102-0.042-0.148c-0.068-0.153-0.168-0.242-0.292-0.244c-0.123,0.002-0.229,0.097-0.292,0.244
	c-0.016,0.041-0.037,0.094-0.043,0.148l-1.069,3.432l-2.266,0.683c-0.041,0.013-0.087,0.017-0.125,0.041
	c-0.127,0.047-0.206,0.132-0.206,0.233C36.417,168.072,36.499,168.156,36.622,168.209z"/>
<path fill="#45A3D4" d="M50.389,228.432c-0.118,0-0.224,0.096-0.29,0.239c-0.017,0.042-0.042,0.099-0.043,0.152l-1.077,3.434
	l-2.258,0.683c-0.043,0.013-0.087,0.018-0.125,0.041c-0.125,0.052-0.208,0.135-0.208,0.234c0.001,0.098,0.079,0.182,0.208,0.237
	c0.041,0.015,0.073,0.026,0.125,0.04l2.255,0.682l1.079,3.434c0.013,0.053,0.027,0.099,0.044,0.153
	c0.066,0.146,0.167,0.239,0.29,0.239c0.119,0,0.225-0.098,0.291-0.239c0.019-0.046,0.037-0.098,0.047-0.153l1.075-3.435l2.255-0.682
	c0.042-0.013,0.089-0.021,0.128-0.04c0.125-0.055,0.203-0.139,0.203-0.236c0-0.097-0.08-0.181-0.203-0.236
	c-0.04-0.015-0.082-0.027-0.128-0.039l-2.255-0.682l-1.078-3.434c-0.013-0.053-0.025-0.102-0.044-0.151
	C50.617,228.527,50.51,228.432,50.389,228.432z"/>
</svg>
