<?xml version="1.0" encoding="utf-8"?>
<!-- Generator: Adobe Illustrator 15.1.0, SVG Export Plug-In . SVG Version: 6.00 Build 0)  -->
<!DOCTYPE svg PUBLIC "-//W3C//DTD SVG 1.1//EN" "http://www.w3.org/Graphics/SVG/1.1/DTD/svg11.dtd">
<svg version="1.1" id="Layer_1" xmlns="http://www.w3.org/2000/svg" xmlns:xlink="http://www.w3.org/1999/xlink" x="0px" y="0px"
	 width="178px" height="315px" viewBox="0 0 178 315" enable-background="new 0 0 178 315" xml:space="preserve">
<path fill="#45A3D4" d="M120.968,140.74c-0.353-1.958-1.481-3.646-3.063-4.726c-1.168-0.799-2.57-1.268-4.102-1.268h-50.4
	c-1.639,0-3.148,0.547-4.367,1.46c-1.528,1.146-2.59,2.87-2.858,4.854c-0.043,0.321-0.074,0.647-0.074,0.98v30.885
	c0,0.228,0.015,0.441,0.034,0.656c0.18,2.004,1.167,3.774,2.641,4.983c1.258,1.021,2.869,1.646,4.623,1.646H113.8
	c1.638,0,3.153-0.547,4.372-1.459c1.533-1.145,2.59-2.871,2.855-4.854c0.047-0.321,0.078-0.647,0.078-0.981V142.03
	C121.091,141.596,121.045,141.162,120.968,140.74z M70.492,140.378h36.201h4.037l-22.424,13.634l-22.423-13.634H70.492z
	 M115.457,174.587h-4.156h-4.613H70.492h-5.184h-3.581v-4.411v-4.35v-16.69v-4.696l21.16,12.867l5.418,3.294l5.417-3.294
	l21.73-13.217v5.045v16.691v4.697L115.457,174.587L115.457,174.587L115.457,174.587z"/>
<path fill="#41A3D6" d="M177.43,46.186c-0.103-0.043-0.222-0.078-0.341-0.104l-6.212-1.868l-2.96-9.448
	c-0.031-0.144-0.079-0.282-0.126-0.406c-0.178-0.407-0.471-0.67-0.795-0.668c-0.328-0.005-0.623,0.264-0.799,0.668
	c-0.051,0.122-0.096,0.259-0.129,0.406l-2.961,9.444l-6.211,1.872c-0.119,0.021-0.234,0.062-0.336,0.097
	c-0.34,0.146-0.561,0.381-0.561,0.644c0,0.264,0.221,0.495,0.561,0.642c0.104,0.039,0.222,0.074,0.347,0.097l6.21,1.872l2.958,9.448
	c0.032,0.144,0.077,0.282,0.129,0.407c0.174,0.407,0.468,0.668,0.799,0.668c0.322,0,0.616-0.266,0.795-0.668
	c0.052-0.118,0.091-0.257,0.124-0.407l2.964-9.448l6.207-1.868c0.123-0.021,0.236-0.062,0.343-0.102
	c0.34-0.144,0.565-0.377,0.565-0.643C177.991,46.558,177.771,46.327,177.43,46.186z"/>
<path fill="#41A3D6" d="M147.904,99.793c-0.053-0.018-0.1-0.034-0.157-0.045l-2.827-0.852l-1.338-4.29
	c-0.018-0.067-0.035-0.127-0.055-0.186c-0.084-0.189-0.209-0.305-0.364-0.305s-0.28,0.122-0.364,0.305
	c-0.02,0.052-0.047,0.121-0.054,0.186l-1.338,4.29l-2.826,0.85c-0.054,0.012-0.104,0.023-0.157,0.048
	c-0.156,0.065-0.26,0.168-0.26,0.291c-0.001,0.122,0.102,0.226,0.26,0.295c0.053,0.018,0.1,0.036,0.157,0.051l2.825,0.851
	l1.339,4.291c0.017,0.066,0.034,0.125,0.052,0.187c0.086,0.191,0.21,0.303,0.365,0.307c0.152-0.003,0.286-0.122,0.363-0.307
	c0.021-0.052,0.048-0.119,0.055-0.187l1.338-4.291l2.83-0.85c0.053-0.017,0.107-0.021,0.156-0.052
	c0.156-0.059,0.26-0.165,0.26-0.292C148.161,99.963,148.061,99.858,147.904,99.793z"/>
<path fill="#41A3D6" d="M128.491,11.961c0.146,0,0.278-0.122,0.364-0.301c0.02-0.052,0.052-0.122,0.052-0.189l1.346-4.293
	l2.823-0.852c0.055-0.014,0.107-0.022,0.156-0.05c0.156-0.063,0.261-0.169,0.261-0.293c-0.001-0.122-0.101-0.226-0.261-0.295
	c-0.051-0.018-0.092-0.034-0.156-0.05l-2.819-0.852l-1.347-4.293c-0.018-0.063-0.035-0.122-0.055-0.191
	c-0.086-0.183-0.207-0.3-0.364-0.3c-0.15,0-0.281,0.122-0.362,0.3c-0.023,0.057-0.046,0.122-0.059,0.191l-1.346,4.293l-2.82,0.852
	c-0.051,0.014-0.108,0.026-0.155,0.05c-0.155,0.066-0.256,0.171-0.256,0.295c0,0.121,0.101,0.225,0.256,0.293
	c0.049,0.018,0.103,0.036,0.155,0.048l2.82,0.852l1.348,4.293c0.018,0.064,0.033,0.126,0.057,0.188
	C128.207,11.84,128.34,11.961,128.491,11.961z"/>
<path fill="#41A3D6" d="M0.571,268.814c0.102,0.043,0.221,0.076,0.34,0.104l6.212,1.867l2.96,9.449
	c0.031,0.143,0.079,0.281,0.126,0.406c0.178,0.405,0.47,0.67,0.795,0.668c0.328,0.004,0.623-0.265,0.798-0.668
	c0.051-0.123,0.096-0.261,0.129-0.406l2.961-9.445l6.211-1.871c0.119-0.021,0.235-0.062,0.337-0.098
	c0.341-0.146,0.561-0.381,0.561-0.645s-0.22-0.494-0.56-0.642c-0.104-0.039-0.222-0.074-0.347-0.099l-6.21-1.871l-2.958-9.447
	c-0.033-0.145-0.078-0.282-0.129-0.407c-0.174-0.405-0.468-0.668-0.799-0.668c-0.322,0-0.616,0.267-0.795,0.668
	c-0.051,0.119-0.091,0.258-0.124,0.407l-2.964,9.447l-6.207,1.867c-0.123,0.021-0.236,0.062-0.342,0.103
	C0.227,267.68,0,267.913,0,268.179C0.009,268.441,0.229,268.674,0.571,268.814z"/>
<path fill="#41A3D6" d="M30.096,215.207c0.052,0.018,0.1,0.034,0.157,0.045l2.827,0.852l1.338,4.291
	c0.018,0.066,0.035,0.127,0.054,0.187c0.085,0.188,0.209,0.305,0.365,0.305c0.155,0,0.28-0.12,0.364-0.305
	c0.02-0.052,0.047-0.121,0.054-0.187l1.338-4.291l2.826-0.85c0.053-0.012,0.105-0.023,0.157-0.048
	c0.156-0.065,0.26-0.168,0.26-0.291c0.001-0.122-0.101-0.226-0.26-0.296c-0.052-0.018-0.1-0.035-0.157-0.051l-2.825-0.852
	l-1.339-4.29c-0.017-0.065-0.034-0.126-0.052-0.188c-0.086-0.191-0.21-0.304-0.365-0.308c-0.152,0.004-0.286,0.122-0.364,0.308
	c-0.02,0.052-0.047,0.118-0.054,0.188l-1.338,4.29l-2.83,0.852c-0.053,0.017-0.107,0.02-0.156,0.051
	c-0.156,0.06-0.26,0.165-0.26,0.293C29.839,215.037,29.94,215.143,30.096,215.207z"/>
<path fill="#41A3D6" d="M49.509,303.039c-0.146,0-0.279,0.122-0.365,0.301c-0.019,0.053-0.051,0.123-0.051,0.189l-1.346,4.294
	l-2.823,0.852c-0.055,0.015-0.108,0.022-0.156,0.05c-0.157,0.064-0.261,0.17-0.261,0.295c0.001,0.121,0.1,0.226,0.261,0.295
	c0.051,0.019,0.092,0.033,0.156,0.051l2.819,0.852l1.347,4.294c0.017,0.062,0.035,0.121,0.054,0.19c0.086,0.183,0.208,0.3,0.365,0.3
	c0.15,0,0.281-0.122,0.362-0.3c0.024-0.057,0.046-0.122,0.059-0.19l1.345-4.294l2.82-0.852c0.051-0.016,0.109-0.026,0.156-0.051
	c0.155-0.065,0.256-0.172,0.256-0.295c0-0.121-0.101-0.227-0.256-0.295c-0.049-0.018-0.102-0.035-0.156-0.048l-2.82-0.853
	l-1.347-4.293c-0.018-0.064-0.033-0.127-0.057-0.188C49.793,303.16,49.66,303.039,49.509,303.039z"/>
</svg>
