<?xml version="1.0" encoding="utf-8"?>
<!-- Generator: Adobe Illustrator 15.1.0, SVG Export Plug-In . SVG Version: 6.00 Build 0)  -->
<!DOCTYPE svg PUBLIC "-//W3C//DTD SVG 1.1//EN" "http://www.w3.org/Graphics/SVG/1.1/DTD/svg11.dtd">
<svg version="1.1" id="Layer_1" xmlns="http://www.w3.org/2000/svg" xmlns:xlink="http://www.w3.org/1999/xlink" x="0px" y="0px"
	 width="430px" height="317px" viewBox="0 0 430 317" enable-background="new 0 0 430 317" xml:space="preserve">
<path fill="#41A3D6" d="M254.438,137.878c-0.435-2.411-1.824-4.487-3.771-5.817c-1.438-0.984-3.168-1.561-5.047-1.561h-62.032
	c-2.018,0-3.875,0.674-5.375,1.798c-1.881,1.41-3.188,3.533-3.517,5.973c-0.054,0.396-0.091,0.798-0.091,1.208v38.013
	c0,0.277,0.018,0.544,0.041,0.807c0.222,2.467,1.437,4.648,3.25,6.135c1.549,1.262,3.531,2.032,5.691,2.032h62.029
	c2.015,0,3.881-0.673,5.381-1.796c1.888-1.406,3.188-3.534,3.515-5.98c0.059-0.394,0.098-0.797,0.098-1.207v-38.017
	C254.589,138.929,254.531,138.395,254.438,137.878z M192.311,137.43h44.558h4.969l-27.601,16.782l-27.599-16.782H192.311z
	 M247.654,179.537h-5.115h-5.68H192.31h-6.38h-4.407v-5.43v-5.354V148.21v-5.78l26.044,15.838l6.669,4.055l6.667-4.055L247.654,142
	v6.209v20.545v5.782V179.537L247.654,179.537L247.654,179.537z"/>
<path fill="#41A3D6" d="M341.458,46.186c-0.102-0.043-0.221-0.078-0.34-0.104l-6.212-1.868l-2.96-9.448
	c-0.031-0.144-0.079-0.282-0.126-0.406c-0.179-0.407-0.471-0.67-0.795-0.668c-0.328-0.005-0.623,0.264-0.799,0.668
	c-0.051,0.122-0.096,0.259-0.129,0.406l-2.961,9.444l-6.211,1.872c-0.119,0.021-0.234,0.062-0.337,0.097
	c-0.341,0.145-0.561,0.38-0.561,0.644c0,0.264,0.22,0.495,0.56,0.642c0.104,0.039,0.222,0.074,0.347,0.097l6.21,1.872l2.958,9.448
	c0.033,0.144,0.078,0.282,0.13,0.407c0.174,0.407,0.468,0.668,0.799,0.668c0.321,0,0.615-0.266,0.795-0.668
	c0.051-0.118,0.091-0.257,0.124-0.407l2.964-9.448l6.207-1.868c0.123-0.021,0.236-0.062,0.342-0.102
	c0.34-0.144,0.566-0.377,0.566-0.643C342.021,46.558,341.801,46.327,341.458,46.186z"/>
<path fill="#41A3D6" d="M301.432,99.793c-0.053-0.018-0.101-0.034-0.158-0.045l-2.826-0.852l-1.338-4.29
	c-0.019-0.067-0.035-0.127-0.055-0.186c-0.084-0.189-0.209-0.305-0.365-0.305c-0.154,0-0.279,0.122-0.363,0.305
	c-0.02,0.052-0.047,0.121-0.055,0.186l-1.338,4.29l-2.826,0.85c-0.053,0.012-0.104,0.023-0.156,0.048
	c-0.156,0.065-0.26,0.168-0.26,0.291c-0.002,0.122,0.101,0.226,0.26,0.295c0.052,0.018,0.1,0.036,0.156,0.051l2.826,0.851
	l1.338,4.291c0.018,0.066,0.035,0.125,0.053,0.187c0.086,0.191,0.21,0.303,0.365,0.307c0.151-0.003,0.285-0.122,0.363-0.307
	c0.021-0.052,0.047-0.119,0.055-0.187l1.338-4.291l2.83-0.85c0.053-0.017,0.106-0.021,0.156-0.052
	c0.155-0.059,0.26-0.165,0.26-0.292C301.688,99.963,301.586,99.858,301.432,99.793z"/>
<path fill="#41A3D6" d="M284.02,11.961c0.146,0,0.278-0.122,0.364-0.301c0.019-0.052,0.052-0.122,0.052-0.189l1.346-4.293
	l2.822-0.852c0.056-0.014,0.108-0.022,0.156-0.05c0.157-0.063,0.262-0.169,0.262-0.293c-0.002-0.122-0.101-0.226-0.262-0.295
	c-0.051-0.018-0.092-0.034-0.156-0.05l-2.818-0.852l-1.348-4.293c-0.017-0.063-0.035-0.122-0.054-0.191
	c-0.086-0.183-0.208-0.3-0.364-0.3c-0.15,0-0.281,0.122-0.362,0.3c-0.024,0.057-0.046,0.122-0.06,0.191l-1.345,4.293l-2.819,0.852
	c-0.052,0.014-0.109,0.026-0.156,0.05c-0.155,0.066-0.256,0.171-0.256,0.295c0,0.121,0.101,0.225,0.256,0.293
	c0.049,0.018,0.102,0.036,0.156,0.048l2.819,0.852l1.347,4.293c0.019,0.064,0.033,0.126,0.058,0.188
	C283.734,11.84,283.867,11.961,284.02,11.961z"/>
<path fill="#41A3D6" d="M87.757,270.814c0.102,0.043,0.221,0.076,0.34,0.104l6.212,1.867l2.96,9.449
	c0.031,0.143,0.079,0.281,0.126,0.406c0.178,0.405,0.47,0.67,0.795,0.668c0.328,0.004,0.623-0.265,0.798-0.668
	c0.051-0.123,0.096-0.261,0.129-0.406l2.961-9.445l6.211-1.871c0.119-0.021,0.235-0.062,0.337-0.098
	c0.341-0.146,0.561-0.381,0.561-0.645s-0.22-0.494-0.56-0.642c-0.104-0.039-0.222-0.074-0.347-0.099l-6.21-1.871l-2.958-9.447
	c-0.033-0.145-0.078-0.282-0.129-0.407c-0.174-0.406-0.468-0.668-0.799-0.668c-0.322,0-0.616,0.267-0.795,0.668
	c-0.051,0.119-0.091,0.258-0.124,0.407l-2.964,9.447l-6.207,1.867c-0.123,0.021-0.236,0.062-0.342,0.103
	c-0.34,0.145-0.566,0.378-0.566,0.644C87.194,270.441,87.414,270.674,87.757,270.814z"/>
<path fill="#41A3D6" d="M127.784,217.208c0.052,0.017,0.1,0.033,0.157,0.045l2.828,0.851l1.338,4.291
	c0.018,0.067,0.035,0.127,0.053,0.188c0.086,0.188,0.209,0.304,0.366,0.304c0.155,0,0.28-0.122,0.365-0.304
	c0.02-0.053,0.046-0.122,0.053-0.188l1.338-4.291l2.827-0.851c0.052-0.011,0.105-0.021,0.157-0.048
	c0.156-0.064,0.259-0.167,0.259-0.29c0.001-0.122-0.101-0.228-0.259-0.296c-0.052-0.018-0.1-0.035-0.157-0.051l-2.826-0.852
	l-1.339-4.29c-0.017-0.065-0.034-0.126-0.052-0.188c-0.085-0.19-0.209-0.304-0.365-0.306c-0.153,0.002-0.286,0.121-0.364,0.306
	c-0.02,0.053-0.047,0.12-0.053,0.188l-1.338,4.29l-2.831,0.85c-0.052,0.019-0.107,0.021-0.156,0.053
	c-0.156,0.059-0.259,0.165-0.259,0.293C127.528,217.037,127.628,217.143,127.784,217.208z"/>
<path fill="#41A3D6" d="M145.196,305.04c-0.146,0-0.28,0.122-0.365,0.3c-0.019,0.053-0.051,0.123-0.051,0.189l-1.345,4.295
	l-2.824,0.852c-0.054,0.014-0.108,0.021-0.156,0.051c-0.157,0.062-0.26,0.168-0.26,0.293c0.001,0.121,0.1,0.227,0.26,0.295
	c0.051,0.019,0.092,0.035,0.156,0.051l2.82,0.853l1.347,4.293c0.016,0.063,0.035,0.122,0.053,0.191
	c0.085,0.182,0.208,0.299,0.365,0.299c0.15,0,0.281-0.121,0.363-0.299c0.024-0.058,0.045-0.122,0.059-0.191l1.344-4.293l2.82-0.853
	c0.051-0.014,0.109-0.025,0.156-0.051c0.155-0.066,0.256-0.17,0.256-0.295c0-0.121-0.101-0.226-0.256-0.293
	c-0.049-0.019-0.101-0.037-0.156-0.05l-2.82-0.851l-1.347-4.295c-0.017-0.064-0.034-0.127-0.056-0.188
	C145.481,305.16,145.347,305.04,145.196,305.04z"/>
</svg>
