<?xml version="1.0" encoding="utf-8"?>
<!-- Generator: Adobe Illustrator 15.1.0, SVG Export Plug-In . SVG Version: 6.00 Build 0)  -->
<!DOCTYPE svg PUBLIC "-//W3C//DTD SVG 1.1//EN" "http://www.w3.org/Graphics/SVG/1.1/DTD/svg11.dtd">
<svg version="1.1" id="Layer_1" xmlns="http://www.w3.org/2000/svg" xmlns:xlink="http://www.w3.org/1999/xlink" x="0px" y="0px"
	 width="178px" height="315px" viewBox="0 0 178 315" enable-background="new 0 0 178 315" xml:space="preserve">
<path fill="#45A3D4" d="M120.968,140.74c-0.353-1.958-1.481-3.645-3.064-4.726c-1.168-0.799-2.573-1.268-4.101-1.268H63.403
	c-1.639,0-3.148,0.547-4.367,1.46c-1.528,1.146-2.59,2.87-2.858,4.854c-0.043,0.321-0.074,0.647-0.074,0.98v30.885
	c0,0.227,0.015,0.441,0.034,0.656c0.18,2.004,1.167,3.774,2.641,4.983c1.258,1.025,2.869,1.65,4.623,1.65H113.8
	c1.638,0,3.153-0.547,4.372-1.459c1.533-1.142,2.59-2.871,2.855-4.857c0.047-0.321,0.078-0.647,0.078-0.981v-30.887
	C121.091,141.596,121.045,141.162,120.968,140.74z M70.492,140.378h36.202h4.037l-22.425,13.634l-22.423-13.634H70.492z
	 M115.457,174.587h-4.156h-4.614H70.492h-5.184h-3.581v-4.411v-4.35v-16.69v-4.696l21.16,12.867l5.418,3.294l5.418-3.294
	l21.733-13.217v5.045v16.691v4.698V174.587L115.457,174.587L115.457,174.587z"/>
<path fill="#45A3D4" d="M1.585,268.835c0.106,0.046,0.228,0.08,0.354,0.11l6.497,1.953l3.097,9.885
	c0.031,0.152,0.077,0.299,0.133,0.427c0.184,0.427,0.486,0.696,0.829,0.696c0.342,0.009,0.646-0.272,0.831-0.696
	c0.056-0.124,0.101-0.27,0.134-0.427l3.098-9.878l6.497-1.963c0.128-0.019,0.248-0.062,0.354-0.098
	c0.355-0.15,0.588-0.399,0.59-0.671c0-0.277-0.234-0.519-0.588-0.672c-0.108-0.044-0.229-0.081-0.358-0.104l-6.494-1.956
	l-3.097-9.884c-0.033-0.154-0.078-0.301-0.133-0.429c-0.186-0.425-0.489-0.699-0.831-0.699c-0.342,0-0.648,0.279-0.831,0.699
	c-0.056,0.123-0.1,0.27-0.133,0.429l-3.098,9.885l-6.494,1.951c-0.129,0.021-0.247,0.065-0.358,0.108
	C1.231,267.651,1,267.897,1,268.175C0.996,268.448,1.229,268.689,1.585,268.835z"/>
<path fill="#45A3D4" d="M35.556,218.173c0.045,0.016,0.09,0.03,0.141,0.041l2.542,0.767l1.21,3.865
	c0.014,0.06,0.031,0.114,0.053,0.168c0.072,0.172,0.189,0.274,0.324,0.274c0.134,0,0.252-0.109,0.326-0.274
	c0.023-0.047,0.041-0.109,0.054-0.168l1.208-3.865l2.543-0.767c0.05-0.011,0.094-0.017,0.138-0.043
	c0.142-0.059,0.231-0.15,0.231-0.266c0-0.11-0.091-0.204-0.231-0.267c-0.042-0.016-0.089-0.032-0.138-0.046l-2.543-0.768
	l-1.208-3.865c-0.014-0.06-0.031-0.109-0.053-0.172c-0.072-0.172-0.189-0.27-0.323-0.273c-0.135,0.004-0.255,0.109-0.327,0.273
	c-0.022,0.047-0.04,0.11-0.053,0.172l-1.211,3.865l-2.543,0.768c-0.048,0.016-0.096,0.016-0.139,0.046
	c-0.138,0.052-0.23,0.146-0.23,0.267C35.329,218.021,35.418,218.114,35.556,218.173z"/>
<path fill="#45A3D4" d="M49.505,302.442c-0.133,0-0.253,0.11-0.327,0.271c-0.021,0.046-0.038,0.109-0.05,0.172l-1.212,3.866
	l-2.541,0.767c-0.049,0.014-0.098,0.019-0.141,0.046c-0.137,0.058-0.23,0.152-0.23,0.267c0.002,0.109,0.091,0.203,0.23,0.266
	c0.046,0.016,0.09,0.031,0.141,0.047l2.538,0.767l1.214,3.866c0.013,0.058,0.031,0.11,0.052,0.172
	c0.073,0.172,0.188,0.269,0.326,0.269c0.133,0,0.251-0.11,0.324-0.269c0.022-0.047,0.039-0.109,0.053-0.172l1.21-3.866l2.542-0.767
	c0.047-0.016,0.098-0.021,0.14-0.047c0.139-0.06,0.23-0.153,0.23-0.266c0-0.109-0.091-0.203-0.23-0.267
	c-0.042-0.016-0.09-0.032-0.139-0.045l-2.542-0.767l-1.211-3.866c-0.012-0.058-0.03-0.113-0.052-0.17
	C49.756,302.553,49.636,302.442,49.505,302.442z"/>
<path fill="#45A3D4" d="M176.406,46.158c-0.106-0.045-0.229-0.08-0.355-0.108l-6.495-1.952l-3.095-9.879
	c-0.032-0.149-0.081-0.294-0.131-0.424c-0.187-0.426-0.49-0.701-0.832-0.699c-0.343-0.005-0.65,0.276-0.833,0.699
	c-0.054,0.127-0.1,0.271-0.135,0.424l-3.097,9.874l-6.493,1.958c-0.124,0.021-0.245,0.063-0.352,0.102
	c-0.355,0.151-0.588,0.397-0.588,0.673s0.232,0.517,0.587,0.671c0.107,0.041,0.23,0.077,0.362,0.102l6.492,1.955l3.092,9.879
	c0.035,0.149,0.081,0.295,0.136,0.425c0.182,0.425,0.487,0.698,0.833,0.698c0.337,0,0.645-0.278,0.831-0.698
	c0.053-0.123,0.096-0.27,0.13-0.425l3.1-9.879l6.488-1.952c0.129-0.022,0.247-0.064,0.357-0.106c0.356-0.15,0.592-0.395,0.592-0.672
	C176.994,46.547,176.764,46.306,176.406,46.158z"/>
<path fill="#45A3D4" d="M142.431,96.822c-0.047-0.017-0.09-0.03-0.141-0.041l-2.546-0.766l-1.203-3.861
	c-0.017-0.061-0.031-0.114-0.049-0.168c-0.076-0.17-0.188-0.273-0.328-0.273c-0.141,0-0.252,0.109-0.328,0.273
	c-0.018,0.047-0.043,0.109-0.049,0.168l-1.203,3.861l-2.545,0.766c-0.046,0.01-0.095,0.02-0.142,0.042
	c-0.141,0.059-0.233,0.151-0.233,0.262c-0.002,0.11,0.091,0.204,0.233,0.266c0.047,0.017,0.09,0.032,0.142,0.046l2.544,0.767
	l1.204,3.861c0.015,0.06,0.03,0.113,0.047,0.168c0.077,0.172,0.189,0.272,0.328,0.275c0.139-0.003,0.258-0.109,0.329-0.275
	c0.018-0.047,0.041-0.106,0.048-0.168l1.203-3.861l2.549-0.766c0.047-0.015,0.097-0.019,0.141-0.047
	c0.14-0.053,0.232-0.148,0.232-0.263C142.661,96.975,142.57,96.881,142.431,96.822z"/>
<path fill="#45A3D4" d="M128.492,12.548c0.132,0,0.252-0.109,0.327-0.271c0.019-0.047,0.046-0.11,0.048-0.171l1.211-3.863
	l2.54-0.768c0.049-0.013,0.099-0.019,0.141-0.045c0.142-0.057,0.234-0.152,0.234-0.264c-0.001-0.11-0.089-0.204-0.234-0.267
	c-0.046-0.016-0.082-0.03-0.141-0.045l-2.537-0.767l-1.213-3.863c-0.014-0.058-0.03-0.11-0.049-0.172
	c-0.075-0.164-0.188-0.27-0.327-0.27c-0.135,0-0.254,0.11-0.327,0.27c-0.021,0.051-0.041,0.11-0.053,0.172l-1.209,3.864
	l-2.538,0.767c-0.047,0.013-0.099,0.023-0.142,0.045c-0.14,0.061-0.23,0.154-0.23,0.266c0,0.109,0.091,0.203,0.23,0.265
	c0.045,0.016,0.091,0.032,0.142,0.044l2.538,0.767l1.212,3.863c0.015,0.059,0.029,0.114,0.05,0.17
	C128.235,12.439,128.356,12.548,128.492,12.548z"/>
</svg>
