<?xml version="1.0" encoding="utf-8"?>
<!-- Generator: Adobe Illustrator 15.1.0, SVG Export Plug-In . SVG Version: 6.00 Build 0)  -->
<!DOCTYPE svg PUBLIC "-//W3C//DTD SVG 1.1//EN" "http://www.w3.org/Graphics/SVG/1.1/DTD/svg11.dtd">
<svg version="1.1" id="Layer_1" xmlns="http://www.w3.org/2000/svg" xmlns:xlink="http://www.w3.org/1999/xlink" x="0px" y="0px"
	 width="176px" height="238px" viewBox="0 0 176 238" enable-background="new 0 0 176 238" xml:space="preserve">
<path fill="#48A3D3" d="M112.64,109.255c-0.269-1.491-1.128-2.776-2.332-3.598c-0.89-0.608-1.959-0.965-3.123-0.965H68.812
	c-1.248,0-2.397,0.417-3.325,1.111c-1.164,0.873-1.972,2.186-2.176,3.696c-0.033,0.244-0.057,0.493-0.057,0.746v23.514
	c0,0.174,0.012,0.336,0.026,0.5c0.137,1.525,0.889,2.874,2.011,3.795c0.958,0.779,2.185,1.255,3.52,1.255h38.371
	c1.247,0,2.4-0.417,3.328-1.111c1.168-0.869,1.973-2.186,2.175-3.696c0.035-0.245,0.06-0.494,0.06-0.748v-23.516
	C112.733,109.907,112.698,109.576,112.64,109.255z M74.209,108.979h27.562h3.074L87.772,119.36L70.7,108.979H74.209z
	 M108.444,135.024h-3.165h-3.512H74.209h-3.947h-2.727v-3.357v-3.312v-12.708v-3.575l16.11,9.797l4.125,2.508l4.125-2.508
	l16.546-10.064v3.841v12.708v3.577L108.444,135.024L108.444,135.024L108.444,135.024z"/>
<path fill="#48A3D3" d="M27.637,204.646c0.069,0.03,0.149,0.053,0.231,0.072l4.237,1.274l2.02,6.446
	c0.02,0.1,0.05,0.194,0.086,0.277c0.12,0.279,0.317,0.455,0.541,0.455c0.223,0.005,0.421-0.178,0.542-0.455
	c0.037-0.08,0.066-0.176,0.087-0.277l2.021-6.443l4.237-1.279c0.083-0.013,0.162-0.041,0.231-0.065
	c0.231-0.098,0.383-0.259,0.385-0.437c0-0.181-0.153-0.339-0.384-0.438c-0.07-0.029-0.149-0.054-0.233-0.068l-4.235-1.274
	l-2.02-6.446c-0.021-0.102-0.051-0.197-0.086-0.28c-0.122-0.278-0.319-0.455-0.542-0.455c-0.223,0-0.423,0.181-0.542,0.455
	c-0.037,0.08-0.065,0.177-0.086,0.28l-2.021,6.446l-4.235,1.272c-0.084,0.013-0.161,0.042-0.233,0.07
	c-0.23,0.098-0.381,0.258-0.381,0.438C27.253,204.394,27.405,204.551,27.637,204.646z"/>
<path fill="#48A3D3" d="M45.714,168.12c0.03,0.012,0.06,0.021,0.094,0.027l1.695,0.511l0.807,2.578
	c0.009,0.04,0.021,0.075,0.035,0.112c0.048,0.114,0.126,0.182,0.216,0.182c0.089,0,0.167-0.072,0.217-0.182
	c0.016-0.032,0.027-0.072,0.036-0.112l0.806-2.578l1.695-0.511c0.033-0.007,0.062-0.011,0.092-0.028
	c0.094-0.039,0.154-0.1,0.154-0.178c0-0.073-0.061-0.136-0.154-0.178c-0.028-0.011-0.06-0.021-0.092-0.032l-1.695-0.512
	l-0.806-2.577c-0.009-0.04-0.021-0.071-0.035-0.114c-0.048-0.115-0.126-0.18-0.215-0.181c-0.09,0.003-0.17,0.071-0.218,0.181
	c-0.015,0.031-0.027,0.073-0.036,0.114l-0.808,2.577l-1.695,0.512c-0.032,0.012-0.064,0.012-0.093,0.032
	c-0.092,0.034-0.153,0.097-0.153,0.178C45.562,168.02,45.622,168.08,45.714,168.12z"/>
<path fill="#48A3D3" d="M58.93,230.816c-0.088,0-0.168,0.072-0.218,0.18c-0.014,0.03-0.025,0.072-0.033,0.114l-0.808,2.578
	l-1.694,0.511c-0.033,0.01-0.065,0.013-0.094,0.032c-0.091,0.037-0.153,0.1-0.153,0.177c0.001,0.072,0.061,0.135,0.153,0.178
	c0.031,0.012,0.061,0.02,0.094,0.032l1.692,0.511l0.809,2.577c0.009,0.039,0.021,0.073,0.035,0.114
	c0.049,0.115,0.125,0.18,0.217,0.18c0.089,0,0.167-0.072,0.216-0.18c0.015-0.031,0.026-0.072,0.035-0.114l0.807-2.577l1.694-0.511
	c0.032-0.013,0.065-0.015,0.094-0.032c0.093-0.04,0.153-0.103,0.153-0.178c0-0.072-0.061-0.136-0.153-0.177
	c-0.028-0.012-0.06-0.022-0.093-0.03l-1.695-0.513l-0.807-2.577c-0.008-0.039-0.02-0.074-0.035-0.113
	C59.097,230.89,59.017,230.816,58.93,230.816z"/>
<path fill="#48A3D3" d="M148.356,40.349c-0.069-0.029-0.149-0.052-0.231-0.07l-4.235-1.273l-2.019-6.443
	c-0.021-0.097-0.053-0.192-0.086-0.277c-0.122-0.277-0.319-0.457-0.542-0.455c-0.224-0.003-0.424,0.18-0.544,0.455
	c-0.035,0.083-0.064,0.177-0.088,0.277l-2.019,6.439l-4.235,1.277c-0.08,0.014-0.16,0.042-0.23,0.067
	c-0.23,0.099-0.383,0.259-0.383,0.439c0,0.18,0.152,0.336,0.383,0.438c0.069,0.027,0.15,0.05,0.236,0.066l4.234,1.275l2.016,6.442
	c0.023,0.098,0.053,0.193,0.089,0.277c0.119,0.277,0.317,0.455,0.544,0.455c0.219,0,0.42-0.181,0.542-0.455
	c0.035-0.08,0.062-0.176,0.084-0.277l2.021-6.442l4.231-1.273c0.084-0.015,0.161-0.042,0.233-0.069
	c0.231-0.097,0.386-0.257,0.386-0.438C148.74,40.603,148.59,40.446,148.356,40.349z"/>
<path fill="#48A3D3" d="M130.276,76.875c-0.031-0.011-0.061-0.02-0.094-0.027l-1.697-0.511l-0.803-2.574
	c-0.012-0.041-0.021-0.076-0.032-0.112c-0.05-0.113-0.125-0.182-0.219-0.182s-0.168,0.073-0.219,0.182
	c-0.012,0.032-0.028,0.073-0.032,0.112l-0.803,2.574l-1.696,0.511c-0.031,0.007-0.064,0.013-0.095,0.028
	c-0.095,0.039-0.155,0.101-0.155,0.174c-0.002,0.073,0.061,0.136,0.155,0.177c0.03,0.011,0.06,0.021,0.095,0.031l1.695,0.511
	l0.804,2.575c0.01,0.04,0.02,0.075,0.031,0.111c0.051,0.115,0.126,0.182,0.219,0.184c0.093-0.002,0.172-0.073,0.219-0.184
	c0.013-0.031,0.027-0.07,0.032-0.111l0.802-2.575l1.7-0.511c0.031-0.01,0.065-0.013,0.093-0.031
	c0.096-0.035,0.155-0.099,0.155-0.176C130.43,76.978,130.369,76.915,130.276,76.875z"/>
<path fill="#48A3D3" d="M117.068,14.177c0.087,0,0.168-0.072,0.217-0.181c0.014-0.031,0.031-0.073,0.033-0.114l0.807-2.575
	l1.693-0.512c0.032-0.009,0.065-0.013,0.094-0.03c0.095-0.038,0.156-0.102,0.156-0.176c0-0.074-0.06-0.137-0.156-0.178
	c-0.03-0.011-0.055-0.02-0.094-0.03l-1.691-0.511l-0.808-2.575c-0.011-0.039-0.021-0.073-0.034-0.115
	C117.236,7.071,117.16,7,117.068,7c-0.091,0-0.169,0.073-0.219,0.18c-0.014,0.034-0.026,0.074-0.035,0.115l-0.807,2.576
	l-1.691,0.511c-0.031,0.009-0.066,0.015-0.095,0.03c-0.094,0.041-0.153,0.103-0.153,0.178c0,0.072,0.062,0.135,0.153,0.176
	c0.03,0.01,0.061,0.021,0.095,0.03l1.691,0.511l0.81,2.575c0.009,0.039,0.019,0.076,0.032,0.113
	C116.896,14.104,116.977,14.177,117.068,14.177z"/>
</svg>
