<?xml version="1.0" encoding="utf-8"?>
<!-- Generator: Adobe Illustrator 15.1.0, SVG Export Plug-In . SVG Version: 6.00 Build 0)  -->
<!DOCTYPE svg PUBLIC "-//W3C//DTD SVG 1.1//EN" "http://www.w3.org/Graphics/SVG/1.1/DTD/svg11.dtd">
<svg version="1.1" id="Layer_1" xmlns="http://www.w3.org/2000/svg" xmlns:xlink="http://www.w3.org/1999/xlink" x="0px" y="0px"
	 width="430px" height="317px" viewBox="0 0 430 317" enable-background="new 0 0 430 317" xml:space="preserve">
<path fill="#41A3D6" d="M254.438,137.878c-0.435-2.411-1.824-4.487-3.773-5.817c-1.439-0.984-3.168-1.561-5.047-1.561h-62.032
	c-2.018,0-3.875,0.674-5.375,1.798c-1.881,1.41-3.188,3.533-3.517,5.973c-0.054,0.396-0.091,0.798-0.091,1.208v38.013
	c0,0.277,0.018,0.544,0.041,0.807c0.222,2.467,1.437,4.648,3.25,6.135c1.549,1.262,3.531,2.032,5.691,2.032h62.029
	c2.015,0,3.881-0.673,5.381-1.796c1.888-1.406,3.188-3.534,3.515-5.98c0.056-0.394,0.095-0.797,0.095-1.207v-38.017
	C254.589,138.929,254.531,138.395,254.438,137.878z M192.311,137.43h44.558h4.969l-27.601,16.782l-27.599-16.782H192.311z
	 M247.654,179.537h-5.115h-5.68H192.31h-6.38h-4.407v-5.43v-5.354V148.21v-5.78l26.044,15.838l6.669,4.055l6.667-4.055L247.654,142
	v6.209v20.545v5.782V179.537L247.654,179.537L247.654,179.537z"/>
<path fill="#41A3D6" d="M84.16,268.955c0.125,0.054,0.267,0.094,0.416,0.129l7.627,2.293l3.635,11.605
	c0.037,0.178,0.09,0.35,0.157,0.5c0.216,0.502,0.571,0.819,0.973,0.819c0.402,0.009,0.758-0.321,0.975-0.819
	c0.065-0.146,0.118-0.317,0.157-0.5l3.637-11.596l7.627-2.304c0.15-0.022,0.291-0.073,0.415-0.115
	c0.417-0.176,0.69-0.469,0.693-0.788c0-0.326-0.275-0.609-0.691-0.789c-0.127-0.051-0.269-0.094-0.42-0.121l-7.623-2.297
	l-3.635-11.603c-0.039-0.179-0.091-0.351-0.156-0.503c-0.218-0.499-0.574-0.821-0.975-0.821c-0.402,0-0.761,0.328-0.975,0.821
	c-0.066,0.145-0.117,0.318-0.156,0.503l-3.636,11.603l-7.624,2.291c-0.151,0.025-0.29,0.078-0.42,0.127
	c-0.417,0.174-0.689,0.463-0.689,0.789C83.468,268.501,83.741,268.784,84.16,268.955z"/>
<path fill="#41A3D6" d="M127.614,215.264c0.06,0.021,0.12,0.041,0.188,0.055l3.384,1.021l1.611,5.146
	c0.019,0.08,0.041,0.152,0.07,0.224c0.096,0.228,0.252,0.365,0.432,0.365c0.179,0,0.336-0.146,0.434-0.365
	c0.03-0.062,0.054-0.146,0.071-0.224l1.608-5.146l3.386-1.021c0.067-0.014,0.126-0.022,0.184-0.057
	c0.188-0.078,0.307-0.201,0.307-0.354c0.001-0.146-0.121-0.271-0.307-0.354c-0.057-0.021-0.119-0.043-0.184-0.062l-3.385-1.021
	l-1.609-5.146c-0.019-0.08-0.041-0.146-0.071-0.229c-0.096-0.229-0.252-0.359-0.43-0.365c-0.18,0.006-0.34,0.146-0.436,0.365
	c-0.029,0.062-0.053,0.146-0.07,0.229l-1.612,5.146l-3.386,1.021c-0.064,0.021-0.128,0.021-0.185,0.062
	c-0.183,0.068-0.307,0.195-0.307,0.354C127.311,215.061,127.431,215.186,127.614,215.264z"/>
<path fill="#41A3D6" d="M144.978,301.664c-0.178,0-0.337,0.146-0.435,0.359c-0.027,0.062-0.051,0.146-0.067,0.229l-1.614,5.146
	l-3.382,1.021c-0.065,0.019-0.131,0.024-0.188,0.062c-0.182,0.076-0.306,0.203-0.306,0.354c0.002,0.146,0.121,0.271,0.306,0.354
	c0.061,0.021,0.12,0.041,0.188,0.062l3.378,1.021l1.616,5.146c0.017,0.076,0.041,0.146,0.069,0.229
	c0.097,0.229,0.251,0.357,0.434,0.357c0.177,0,0.335-0.146,0.432-0.357c0.03-0.062,0.052-0.146,0.07-0.229l1.611-5.146l3.383-1.021
	c0.063-0.021,0.13-0.028,0.187-0.062c0.185-0.08,0.306-0.205,0.306-0.354c-0.001-0.146-0.121-0.271-0.306-0.354
	c-0.057-0.021-0.12-0.043-0.185-0.06l-3.384-1.021l-1.612-5.146c-0.016-0.076-0.04-0.15-0.069-0.227
	C145.313,301.811,145.152,301.664,144.978,301.664z"/>
<path fill="#41A3D6" d="M345.829,48.041c-0.125-0.053-0.269-0.095-0.417-0.128l-7.625-2.292l-3.633-11.596
	c-0.038-0.176-0.094-0.346-0.154-0.498c-0.218-0.5-0.576-0.823-0.976-0.821c-0.402-0.006-0.762,0.324-0.979,0.821
	c-0.063,0.149-0.117,0.318-0.157,0.498l-3.635,11.591l-7.623,2.298c-0.146,0.026-0.288,0.075-0.413,0.119
	c-0.418,0.178-0.691,0.467-0.691,0.79c0,0.324,0.273,0.607,0.689,0.788c0.127,0.048,0.272,0.091,0.426,0.119l7.621,2.297
	l3.63,11.596c0.041,0.176,0.094,0.346,0.159,0.499c0.213,0.499,0.573,0.82,0.977,0.82c0.397,0,0.757-0.327,0.976-0.82
	c0.062-0.145,0.112-0.316,0.152-0.499l3.638-11.596l7.618-2.292c0.151-0.027,0.29-0.076,0.42-0.125
	c0.417-0.177,0.694-0.463,0.694-0.789C346.52,48.497,346.249,48.214,345.829,48.041z"/>
<path fill="#41A3D6" d="M302.376,101.734c-0.062-0.022-0.119-0.041-0.188-0.055l-3.392-1.021l-1.604-5.146
	c-0.021-0.08-0.041-0.152-0.066-0.223c-0.1-0.227-0.252-0.365-0.436-0.365c-0.187,0-0.336,0.146-0.438,0.365
	c-0.023,0.062-0.057,0.145-0.064,0.223l-1.604,5.146l-3.39,1.02c-0.063,0.014-0.127,0.027-0.188,0.057
	c-0.188,0.078-0.312,0.201-0.312,0.349c-0.002,0.146,0.121,0.271,0.312,0.354c0.062,0.021,0.119,0.043,0.188,0.061l3.388,1.021
	l1.606,5.146c0.021,0.08,0.041,0.151,0.064,0.224c0.102,0.229,0.252,0.364,0.436,0.368c0.183-0.004,0.343-0.146,0.438-0.368
	c0.024-0.062,0.056-0.142,0.065-0.224l1.605-5.146l3.395-1.02c0.062-0.02,0.129-0.025,0.187-0.062c0.187-0.071,0.31-0.198,0.31-0.35
	C302.684,101.937,302.562,101.812,302.376,101.734z"/>
<path fill="#41A3D6" d="M285.018,15.332c0.176,0,0.336-0.146,0.436-0.361c0.025-0.062,0.059-0.146,0.064-0.227l1.612-5.146
	l3.384-1.021c0.065-0.017,0.131-0.026,0.188-0.06c0.188-0.076,0.312-0.203,0.312-0.352c-0.002-0.146-0.119-0.271-0.312-0.354
	c-0.062-0.021-0.111-0.041-0.188-0.06l-3.38-1.021l-1.614-5.146c-0.019-0.076-0.041-0.146-0.066-0.229
	c-0.1-0.219-0.25-0.359-0.436-0.359c-0.179,0-0.336,0.146-0.435,0.359c-0.028,0.068-0.054,0.146-0.069,0.229l-1.611,5.146
	l-3.381,1.021c-0.062,0.017-0.131,0.031-0.188,0.06c-0.186,0.08-0.307,0.205-0.307,0.354c0,0.145,0.121,0.27,0.307,0.352
	c0.059,0.021,0.121,0.043,0.188,0.058l3.381,1.021l1.613,5.146c0.02,0.078,0.041,0.152,0.067,0.226
	C284.677,15.187,284.837,15.332,285.018,15.332z"/>
</svg>
