<?xml version="1.0" encoding="utf-8"?>
<!-- Generator: Adobe Illustrator 15.1.0, SVG Export Plug-In . SVG Version: 6.00 Build 0)  -->
<!DOCTYPE svg PUBLIC "-//W3C//DTD SVG 1.1//EN" "http://www.w3.org/Graphics/SVG/1.1/DTD/svg11.dtd">
<svg version="1.1" id="Layer_1" xmlns="http://www.w3.org/2000/svg" xmlns:xlink="http://www.w3.org/1999/xlink" x="0px" y="0px"
	 width="21px" height="24px" viewBox="0 0 21 24" enable-background="new 0 0 21 24" xml:space="preserve">
<circle fill="#F58222" cx="4" cy="5.969" r="4"/>
<path fill="#F58222" d="M15,11.969c3.312,0,6-2.687,6-6c0-3.312-2.688-6-6-6s-6,2.688-6,6C9,9.282,11.688,11.969,15,11.969z
	 M15,1.969c2.209,0,4,1.791,4,4s-1.791,4-4,4s-4-1.791-4-4S12.791,1.969,15,1.969z"/>
<circle fill="#612466" cx="4" cy="18" r="4"/>
<path fill="#612466" d="M15,12c-3.312,0-6,2.688-6,6s2.688,6,6,6s6-2.688,6-6S18.312,12,15,12z M15,22c-2.209,0-4-1.791-4-4
	s1.791-4,4-4s4,1.791,4,4S17.209,22,15,22z"/>
</svg>
