<?xml version="1.0" encoding="utf-8"?>
<!-- Generator: Adobe Illustrator 15.1.0, SVG Export Plug-In . SVG Version: 6.00 Build 0)  -->
<!DOCTYPE svg PUBLIC "-//W3C//DTD SVG 1.1//EN" "http://www.w3.org/Graphics/SVG/1.1/DTD/svg11.dtd">
<svg version="1.1" id="Layer_1" xmlns="http://www.w3.org/2000/svg" xmlns:xlink="http://www.w3.org/1999/xlink" x="0px" y="0px"
	 width="311px" height="283px" viewBox="0 0 311 283" enable-background="new 0 0 311 283" xml:space="preserve">
<path fill="#2798D1" d="M309.605,39.786c-0.162-0.069-0.347-0.123-0.539-0.166l-9.864-2.964l-4.701-15.011
	c-0.048-0.23-0.114-0.448-0.201-0.644c-0.28-0.644-0.739-1.067-1.26-1.064c-0.521-0.002-0.979,0.421-1.261,1.064
	c-0.084,0.198-0.15,0.413-0.2,0.646l-4.703,15.006l-9.866,2.968c-0.193,0.038-0.376,0.094-0.535,0.16
	c-0.541,0.226-0.893,0.596-0.896,1.013c0,0.418,0.354,0.788,0.892,1.012c0.163,0.069,0.348,0.122,0.543,0.162l9.863,2.968
	l4.702,15.011c0.05,0.23,0.114,0.448,0.2,0.644c0.281,0.646,0.74,1.067,1.261,1.067s0.981-0.421,1.26-1.067
	c0.087-0.195,0.15-0.413,0.201-0.644l4.703-15.011l9.862-2.965c0.195-0.038,0.375-0.095,0.541-0.165
	c0.539-0.22,0.893-0.589,0.893-1.01C310.5,40.378,310.148,40.01,309.605,39.786z"/>
<path fill="#2798D1" d="M253.415,85.712c-0.06-0.025-0.12-0.042-0.188-0.055l-3.381-1.017l-1.611-5.146
	c-0.019-0.08-0.041-0.152-0.069-0.221c-0.097-0.22-0.252-0.366-0.433-0.366c-0.18,0-0.336,0.144-0.433,0.366
	c-0.03,0.066-0.054,0.143-0.071,0.221l-1.607,5.146l-3.385,1.016c-0.066,0.013-0.127,0.031-0.185,0.056
	c-0.188,0.077-0.306,0.202-0.306,0.347c-0.001,0.145,0.12,0.271,0.306,0.346c0.056,0.025,0.119,0.043,0.185,0.055l3.384,1.019
	l1.608,5.146c0.02,0.081,0.041,0.155,0.071,0.222c0.097,0.224,0.252,0.366,0.429,0.368c0.182-0.002,0.34-0.146,0.437-0.369
	c0.028-0.066,0.053-0.139,0.069-0.221l1.611-5.146l3.383-1.017c0.065-0.014,0.129-0.029,0.187-0.057
	c0.185-0.076,0.306-0.201,0.306-0.345C253.721,85.917,253.6,85.792,253.415,85.712z"/>
<path fill="#2798D1" d="M231.064,14.307c0.179,0,0.338-0.144,0.434-0.365c0.027-0.068,0.051-0.143,0.068-0.223l1.613-5.144
	l3.381-1.018c0.063-0.013,0.129-0.032,0.187-0.057c0.183-0.075,0.308-0.203,0.308-0.345c-0.003-0.143-0.121-0.269-0.308-0.35
	c-0.06-0.021-0.118-0.04-0.188-0.054l-3.377-1.019l-1.615-5.143c-0.018-0.079-0.041-0.153-0.068-0.224
	c-0.096-0.216-0.251-0.361-0.434-0.361c-0.176,0-0.334,0.145-0.432,0.363c-0.029,0.071-0.051,0.145-0.068,0.224l-1.611,5.143
	l-3.381,1.018c-0.063,0.013-0.131,0.034-0.188,0.055c-0.184,0.08-0.305,0.207-0.305,0.349c0.001,0.143,0.121,0.269,0.305,0.346
	c0.059,0.025,0.12,0.042,0.188,0.056l3.381,1.017l1.613,5.147c0.015,0.079,0.039,0.153,0.066,0.221
	C230.729,14.163,230.889,14.307,231.064,14.307z"/>
<path fill="#2798D1" d="M199.262,118.599c-0.482-2.679-2.027-4.987-4.191-6.465c-1.6-1.093-3.531-1.734-5.617-1.734H120.55
	c-2.242,0-4.304,0.749-5.97,1.998c-2.089,1.566-3.541,3.926-3.906,6.638c-0.06,0.44-0.101,0.887-0.101,1.343v42.249
	c0,0.306,0.019,0.603,0.045,0.897c0.246,2.742,1.597,5.168,3.61,6.82c1.721,1.41,3.922,2.258,6.322,2.258h68.903
	c2.242,0,4.306-0.748,5.972-1.996c2.091-1.564,3.54-3.928,3.906-6.639c0.062-0.439,0.101-0.887,0.101-1.343v-42.249
	C199.43,119.768,199.366,119.175,199.262,118.599z M130.254,118.101h49.491h5.521l-30.657,18.653l-30.657-18.653H130.254z
	 M191.729,164.902h-5.68h-6.304h-49.491h-7.087h-4.895v-6.037v-5.948v-22.834v-6.424l28.928,17.603l7.408,4.507l7.408-4.507
	l29.711-18.08v6.901v22.834v6.424v5.562H191.729L191.729,164.902z"/>
<path fill="#2798D1" d="M0.395,243.214c0.161,0.068,0.345,0.123,0.538,0.166l9.866,2.965l4.701,15.014
	c0.048,0.229,0.115,0.449,0.201,0.645c0.281,0.645,0.74,1.066,1.26,1.064c0.521,0.002,0.98-0.422,1.26-1.064
	c0.084-0.197,0.152-0.413,0.202-0.646l4.703-15.008l9.865-2.969c0.194-0.037,0.376-0.094,0.537-0.16
	c0.54-0.226,0.892-0.596,0.895-1.013c0-0.42-0.355-0.788-0.892-1.013c-0.164-0.069-0.348-0.122-0.544-0.161l-9.862-2.968
	l-4.702-15.012c-0.05-0.23-0.116-0.449-0.202-0.646c-0.281-0.646-0.74-1.065-1.26-1.065c-0.521,0-0.982,0.42-1.26,1.065
	c-0.085,0.194-0.15,0.413-0.201,0.646l-4.703,15.012l-9.864,2.965c-0.194,0.037-0.375,0.095-0.541,0.164
	c-0.539,0.221-0.892,0.589-0.892,1.011C-0.5,242.622-0.149,242.99,0.395,243.214z"/>
<path fill="#2798D1" d="M56.585,197.286c0.06,0.023,0.12,0.041,0.188,0.055l3.382,1.02l1.611,5.146
	c0.018,0.08,0.041,0.152,0.07,0.222c0.096,0.219,0.252,0.365,0.432,0.365c0.178,0,0.335-0.145,0.432-0.365
	c0.03-0.065,0.054-0.144,0.071-0.222l1.609-5.146l3.384-1.019c0.067-0.013,0.126-0.028,0.183-0.056
	c0.188-0.078,0.306-0.202,0.306-0.348c0.001-0.146-0.121-0.271-0.306-0.346c-0.056-0.025-0.119-0.044-0.183-0.057l-3.383-1.018
	l-1.61-5.146c-0.018-0.081-0.041-0.154-0.071-0.223c-0.095-0.224-0.252-0.365-0.429-0.368c-0.179,0.003-0.339,0.146-0.435,0.368
	c-0.029,0.065-0.053,0.14-0.07,0.223l-1.612,5.146l-3.383,1.016c-0.065,0.015-0.128,0.029-0.185,0.059
	c-0.183,0.073-0.306,0.2-0.306,0.344C56.28,197.083,56.401,197.208,56.585,197.286z"/>
<path fill="#2798D1" d="M78.934,268.694c-0.177,0-0.337,0.145-0.433,0.363c-0.028,0.068-0.051,0.145-0.068,0.225l-1.613,5.146
	l-3.381,1.018c-0.065,0.014-0.131,0.031-0.188,0.057c-0.182,0.076-0.306,0.202-0.306,0.346c0.002,0.146,0.121,0.27,0.306,0.351
	c0.059,0.021,0.119,0.04,0.188,0.055l3.377,1.021l1.615,5.142c0.017,0.078,0.041,0.15,0.07,0.225
	c0.096,0.217,0.251,0.363,0.432,0.363c0.177,0,0.335-0.146,0.432-0.363c0.03-0.072,0.052-0.146,0.07-0.225l1.611-5.142l3.38-1.02
	c0.064-0.013,0.13-0.031,0.187-0.056c0.184-0.079,0.305-0.205,0.305-0.349c-0.001-0.146-0.121-0.27-0.305-0.348
	c-0.057-0.025-0.12-0.042-0.185-0.056l-3.381-1.017l-1.612-5.147c-0.015-0.079-0.04-0.153-0.069-0.222
	C79.271,268.839,79.111,268.694,78.934,268.694z"/>
</svg>
