<?xml version="1.0" encoding="utf-8"?>
<!-- Generator: Adobe Illustrator 15.1.0, SVG Export Plug-In . SVG Version: 6.00 Build 0)  -->
<!DOCTYPE svg PUBLIC "-//W3C//DTD SVG 1.1//EN" "http://www.w3.org/Graphics/SVG/1.1/DTD/svg11.dtd">
<svg version="1.1" id="Layer_1" xmlns="http://www.w3.org/2000/svg" xmlns:xlink="http://www.w3.org/1999/xlink" x="0px" y="0px"
	 width="335px" height="321px" viewBox="0 0 335 321" enable-background="new 0 0 335 321" xml:space="preserve">
<path fill="#2798D1" d="M211.286,137.586c-0.483-2.679-2.029-4.987-4.194-6.465c-1.601-1.093-3.523-1.734-5.609-1.734h-68.947
	c-2.244,0-4.307,0.749-5.974,1.998c-2.09,1.566-3.543,3.926-3.908,6.638c-0.06,0.44-0.101,0.887-0.101,1.343v42.247
	c0,0.306,0.019,0.603,0.045,0.896c0.246,2.74,1.597,5.166,3.612,6.818c1.722,1.401,3.924,2.258,6.326,2.258h68.939
	c2.24,0,4.312-0.748,5.976-1.996c2.096-1.562,3.542-3.928,3.909-6.646c0.062-0.438,0.104-0.885,0.104-1.342v-42.247
	C211.454,138.754,211.391,138.16,211.286,137.586z M142.24,137.088h49.519h5.523l-30.674,18.651l-30.673-18.651H142.24z
	 M203.748,183.885h-5.684h-6.307H142.24h-7.091h-4.898v-6.035V171.9v-22.833v-6.424l28.944,17.602l7.412,4.507l7.413-4.507
	l29.727-18.079v6.901V171.9v6.424v5.561H203.748L203.748,183.885z"/>
<path fill="#2798D1" d="M0.804,275.188c0.161,0.068,0.345,0.123,0.539,0.166l9.871,2.967l4.704,15.014
	c0.048,0.229,0.115,0.449,0.201,0.646c0.281,0.646,0.74,1.063,1.261,1.062c0.521,0.008,0.98-0.42,1.261-1.062
	c0.084-0.193,0.152-0.412,0.202-0.646l4.706-15.007l9.871-2.976c0.194-0.033,0.376-0.096,0.537-0.153
	c0.541-0.229,0.893-0.603,0.896-1.021c0-0.42-0.355-0.787-0.893-1.02c-0.164-0.062-0.348-0.119-0.544-0.154l-9.867-2.975
	l-4.705-15.012c-0.05-0.229-0.116-0.449-0.202-0.646c-0.281-0.646-0.741-1.062-1.261-1.062c-0.521,0-0.983,0.424-1.261,1.062
	c-0.085,0.188-0.15,0.409-0.201,0.646l-4.706,15.012l-9.869,2.967c-0.195,0.035-0.375,0.1-0.542,0.162
	c-0.54,0.23-0.893,0.599-0.893,1.021C-0.092,274.6,0.259,274.965,0.804,275.188z"/>
<path fill="#2798D1" d="M64.027,222.266c0.06,0.022,0.12,0.041,0.188,0.055l3.384,1.021l1.612,5.146
	c0.018,0.08,0.041,0.152,0.07,0.223c0.096,0.227,0.252,0.365,0.432,0.365c0.178,0,0.335-0.146,0.433-0.365
	c0.03-0.062,0.054-0.145,0.071-0.223l1.609-5.146l3.386-1.02c0.067-0.014,0.126-0.027,0.183-0.057
	c0.188-0.078,0.307-0.201,0.307-0.35c0.001-0.146-0.121-0.271-0.307-0.354c-0.056-0.021-0.119-0.043-0.183-0.062l-3.385-1.021
	l-1.61-5.146c-0.018-0.08-0.041-0.15-0.071-0.225c-0.096-0.229-0.252-0.363-0.43-0.367c-0.179,0.004-0.339,0.146-0.435,0.367
	c-0.029,0.062-0.053,0.143-0.07,0.225l-1.613,5.146l-3.385,1.02c-0.065,0.02-0.128,0.025-0.185,0.062
	c-0.183,0.07-0.307,0.197-0.307,0.35C63.722,222.062,63.843,222.188,64.027,222.266z"/>
<path fill="#2798D1" d="M88.389,306.667c-0.177,0-0.337,0.146-0.434,0.361c-0.028,0.062-0.051,0.146-0.068,0.227l-1.614,5.146
	l-3.382,1.021c-0.065,0.018-0.131,0.026-0.188,0.061c-0.182,0.075-0.306,0.202-0.306,0.352c0.002,0.146,0.121,0.271,0.306,0.354
	c0.06,0.021,0.12,0.041,0.188,0.061l3.378,1.021l1.616,5.146c0.017,0.076,0.041,0.146,0.07,0.229
	c0.096,0.22,0.251,0.359,0.433,0.359c0.177,0,0.335-0.146,0.432-0.359c0.03-0.067,0.052-0.146,0.07-0.229l1.612-5.146l3.382-1.021
	c0.064-0.018,0.13-0.031,0.187-0.061c0.184-0.079,0.306-0.204,0.306-0.354c-0.001-0.145-0.122-0.27-0.306-0.352
	c-0.057-0.021-0.12-0.043-0.185-0.059l-3.383-1.021l-1.613-5.146c-0.015-0.078-0.04-0.152-0.069-0.226
	C88.726,306.812,88.565,306.667,88.389,306.667z"/>
<path fill="#2798D1" d="M334.014,45.813c-0.162-0.068-0.347-0.123-0.539-0.166l-9.871-2.967L318.9,27.668
	c-0.049-0.229-0.115-0.449-0.201-0.646c-0.281-0.646-0.741-1.064-1.262-1.062c-0.521-0.008-0.979,0.42-1.26,1.062
	c-0.085,0.193-0.152,0.412-0.203,0.646l-4.705,15.006l-9.871,2.975c-0.193,0.033-0.375,0.096-0.535,0.154
	c-0.541,0.229-0.895,0.602-0.896,1.02c0,0.42,0.355,0.787,0.893,1.02c0.164,0.062,0.349,0.119,0.546,0.154l9.866,2.975l4.705,15.012
	c0.049,0.229,0.115,0.449,0.203,0.646c0.28,0.646,0.739,1.062,1.26,1.062s0.982-0.424,1.261-1.062
	c0.085-0.188,0.149-0.409,0.2-0.646l4.707-15.012l9.867-2.967c0.195-0.035,0.375-0.1,0.543-0.162
	c0.539-0.23,0.893-0.599,0.893-1.021C334.908,46.403,334.557,46.037,334.014,45.813z"/>
<path fill="#2798D1" d="M270.789,98.737c-0.061-0.022-0.12-0.041-0.188-0.055l-3.384-1.021l-1.612-5.146
	c-0.019-0.08-0.041-0.152-0.069-0.223c-0.097-0.227-0.252-0.365-0.433-0.365c-0.178,0-0.336,0.146-0.433,0.365
	c-0.03,0.062-0.054,0.145-0.071,0.223l-1.608,5.146l-3.386,1.02c-0.067,0.014-0.127,0.027-0.185,0.057
	c-0.188,0.078-0.306,0.201-0.306,0.349c-0.002,0.146,0.121,0.271,0.306,0.354c0.058,0.021,0.119,0.043,0.185,0.061l3.385,1.021
	l1.609,5.146c0.02,0.08,0.041,0.151,0.071,0.224c0.095,0.229,0.252,0.364,0.429,0.368c0.18-0.004,0.34-0.146,0.437-0.368
	c0.028-0.062,0.053-0.142,0.069-0.224l1.612-5.146l3.386-1.02c0.064-0.02,0.129-0.025,0.186-0.062
	c0.184-0.071,0.307-0.198,0.307-0.35C271.096,98.94,270.975,98.815,270.789,98.737z"/>
<path fill="#2798D1" d="M246.43,14.335c0.176,0,0.336-0.146,0.432-0.361c0.029-0.062,0.052-0.146,0.068-0.227l1.613-5.146
	l3.383-1.021c0.065-0.017,0.131-0.026,0.188-0.06c0.184-0.076,0.307-0.203,0.307-0.352c-0.002-0.146-0.121-0.271-0.307-0.354
	c-0.059-0.021-0.118-0.041-0.188-0.06l-3.379-1.021l-1.615-5.146c-0.018-0.076-0.041-0.146-0.07-0.229
	c-0.096-0.219-0.25-0.359-0.432-0.359c-0.178,0-0.336,0.146-0.434,0.359c-0.029,0.068-0.053,0.146-0.07,0.229l-1.611,5.146
	l-3.381,1.021c-0.064,0.017-0.132,0.031-0.188,0.06c-0.184,0.08-0.305,0.205-0.305,0.354c0,0.145,0.121,0.27,0.305,0.352
	c0.057,0.021,0.12,0.043,0.188,0.058l3.381,1.021l1.612,5.146c0.017,0.078,0.041,0.152,0.069,0.226
	C246.09,14.19,246.25,14.335,246.43,14.335z"/>
</svg>
