<?xml version="1.0" encoding="utf-8"?>
<!-- Generator: Adobe Illustrator 15.1.0, SVG Export Plug-In . SVG Version: 6.00 Build 0)  -->
<!DOCTYPE svg PUBLIC "-//W3C//DTD SVG 1.1//EN" "http://www.w3.org/Graphics/SVG/1.1/DTD/svg11.dtd">
<svg version="1.1" id="Layer_1" xmlns="http://www.w3.org/2000/svg" xmlns:xlink="http://www.w3.org/1999/xlink" x="0px" y="0px"
	 width="66px" height="53px" viewBox="0 0 66 53" enable-background="new 0 0 66 53" xml:space="preserve">
<path fill="#2798D1" d="M10.229,29.273c0.111,0.047,0.238,0.084,0.371,0.113l6.781,2.038l3.231,10.317
	c0.033,0.158,0.08,0.309,0.137,0.441c0.194,0.442,0.509,0.733,0.865,0.733c0.358,0,0.675-0.291,0.865-0.731
	c0.059-0.137,0.105-0.285,0.139-0.443l3.233-10.317l6.781-2.038c0.134-0.027,0.258-0.064,0.37-0.111
	c0.371-0.155,0.611-0.408,0.614-0.695c0-0.287-0.243-0.542-0.613-0.695c-0.113-0.049-0.239-0.085-0.373-0.111l-6.778-2.041
	L22.62,15.416c-0.033-0.159-0.079-0.309-0.138-0.443c-0.193-0.444-0.508-0.733-0.866-0.733c-0.357,0-0.675,0.29-0.865,0.733
	c-0.057,0.134-0.102,0.284-0.136,0.443l-3.236,10.317L10.6,27.771c-0.133,0.025-0.258,0.064-0.372,0.113
	c-0.371,0.151-0.613,0.404-0.613,0.694C9.614,28.866,9.855,29.119,10.229,29.273z"/>
<path fill="#2798D1" d="M43.145,6.077c0.039,0.016,0.078,0.027,0.125,0.037l2.258,0.679l1.078,3.438
	c0.012,0.052,0.025,0.101,0.047,0.147c0.062,0.147,0.168,0.244,0.287,0.244c0.121,0,0.225-0.096,0.291-0.244
	c0.019-0.045,0.035-0.096,0.049-0.147l1.074-3.438l2.262-0.679c0.045-0.008,0.086-0.021,0.121-0.037
	c0.123-0.052,0.203-0.136,0.203-0.231c0.002-0.097-0.082-0.183-0.203-0.231c-0.037-0.017-0.082-0.029-0.121-0.037l-2.262-0.681
	l-1.078-3.438c-0.012-0.053-0.026-0.104-0.047-0.149c-0.063-0.148-0.168-0.244-0.287-0.245c-0.119,0.001-0.227,0.097-0.289,0.248
	c-0.021,0.043-0.035,0.092-0.047,0.147l-1.078,3.437l-2.26,0.679c-0.045,0.01-0.086,0.021-0.123,0.039
	c-0.123,0.051-0.205,0.134-0.205,0.229C42.939,5.941,43.021,6.024,43.145,6.077z"/>
<path fill="#2798D1" d="M61.109,42.38c-0.121,0-0.227,0.097-0.291,0.244c-0.019,0.045-0.033,0.094-0.045,0.147l-1.078,3.438
	l-2.258,0.68c-0.045,0.01-0.086,0.021-0.125,0.038c-0.121,0.052-0.205,0.136-0.205,0.23c0.002,0.095,0.082,0.18,0.205,0.231
	c0.039,0.016,0.08,0.028,0.125,0.037l2.256,0.68l1.08,3.437c0.011,0.051,0.025,0.104,0.047,0.149
	c0.063,0.146,0.168,0.242,0.289,0.242c0.117,0,0.221-0.096,0.287-0.242c0.021-0.047,0.035-0.096,0.047-0.147l1.078-3.438
	l2.258-0.679c0.043-0.01,0.087-0.022,0.125-0.038c0.123-0.052,0.203-0.136,0.203-0.23c0-0.096-0.08-0.182-0.203-0.231
	c-0.038-0.017-0.08-0.028-0.123-0.036l-2.26-0.681l-1.078-3.438c-0.01-0.054-0.026-0.103-0.045-0.146
	C61.334,42.477,61.229,42.38,61.109,42.38z"/>
</svg>
