<?xml version="1.0" encoding="utf-8"?>
<!-- Generator: Adobe Illustrator 15.1.0, SVG Export Plug-In . SVG Version: 6.00 Build 0)  -->
<!DOCTYPE svg PUBLIC "-//W3C//DTD SVG 1.1//EN" "http://www.w3.org/Graphics/SVG/1.1/DTD/svg11.dtd">
<svg version="1.1" id="Layer_1" xmlns="http://www.w3.org/2000/svg" xmlns:xlink="http://www.w3.org/1999/xlink" x="0px" y="0px"
	 width="203px" height="103px" viewBox="0 0 203 103" enable-background="new 0 0 203 103" xml:space="preserve">
<path fill="#00A2C5" d="M12.942,6.394c0.718-1.12,4.574-2.161,5.371-0.4c4.255,9.031,5.784,18.786,8.353,28.858
	c0,1.038,1.764,1.038,2.483,2.157c0.405,0.721,0.405,1.758,0,2.159c-2.483,5.357,2.569,9.754,1.85,14.788
	c-0.32,2.157-4.575,3.118-6.183,1.042c-2.726-3.678-0.72-9.595-4.654-11.911c-2.973-1.679-7.628-1.121-10.516,1.119
	C5.955,47,8.523,58.232,0.255,54.312c-1.125-5.035,1.765-8.669,2.889-13.708c1.445-6.473,3.209-13.35,5.379-19.823
	C10.288,15.666,10.046,10.308,12.942,6.394z M11.412,36.609c1.927,1.042,6.901,1.438,7.627-1.039
	c1.444-5.038-1.445-10.073-3.615-14.789c-1.764,2.158-2.163,4.715-2.482,7.192C12.458,31.25,9.327,35.489,11.412,36.609z
	 M35.289,28.369c3.647-3.272,8.026,1.088,7.295,5.809c4.377-0.724,5.471-6.9,10.651-5.448c1.823,0.727,4.087,1.526,2.554,3.632
	c-2.917,4.071-7.295,5.886-10.288,10.247c-1.022,1.453-0.363,1.832-1.093,3.285c-0.73,1.091-0.73,2.188,0.73,4.004
	c1.455,1.815,1.093,5.447-0.73,7.265c-1.461,2.181-4.741,2.181-6.203,0.363c-1.092-0.728-1.163-1.815-1.092-3.271
	c0.291-5.814-0.368-9.465-1.093-15.279C35.58,35.343,32.003,31.273,35.289,28.369z M59.766,11.829
	c1.523-3.118,7.542-3.917,7.862,0.8c0.08,0.797-0.398,2.396-0.398,3.196c0,5.598,0.32,11.592,0,17.106
	c-0.484,8.793,2.083,17.587-1.608,25.502c-1.125,2.476-3.935,2.399-6.261,1.197c-1.202-0.798-1.686-2.796-1.202-4.397
	c2.327-7.911,1.607-15.905,2.006-24.22C60.406,24.62,56.956,17.424,59.766,11.829z M74.139,29.561
	c1.045-2.079,3.848-2.799,6.26-1.76c1.445,0.641,3.13,2.48,1.765,3.837c-2.49,3.519-1.046,7.037-2.085,10.154
	c-1.366,3.838,1.039,7.353,0,11.19c0,0.321-0.405,1.041-0.726,1.041c-2.49,0.719-5.535,1.037-6.339-1.439
	c-1.366-4.556-0.32-9.433-0.32-13.909C72.694,35.475,72.694,32.357,74.139,29.561z M75.824,14.772
	c2.491-1.442,5.778-1.361,7.222,0.719c1.444,2.157-0.719,5.754-2.169,6.555c-1.844,0.956-4.334,0.638-6.177-1.439
	C73.412,19.007,74.7,15.492,75.824,14.772z M88.025,29.895c0.968-2.398,5.543-2.316,6.347,0.4c0.562,2-0.725,3.997-0.725,6.076
	c0.32,0.32,0.725,1.358,0.725,0.958c2.646-4.397,5.052-9.433,10.836-7.753c4.413,7.115,4.014,15.909,4.413,23.982
	c0.32,1.357,0.32,3.679-1.047,4.074c-2.085,0.56-5.137,1.361-5.457-0.719c-1.039-6.713-0.321-13.109-1.687-19.585
	c-4.012,4.396-4.574,10.554-7.784,15.909c-1.202,2.079-4.654,2.397-5.622,0c-1.117-3.038-0.319-6.794-0.319-10.152
	C87.706,38.689,86.668,33.573,88.025,29.895z M135.869,31.111c0.647,0.321,1.849,1.201,1.607,2.398
	c-5.215,10.952-2.488,14.589-1.607,26.178c0.405,4.238,0.484,8.954-3.607,11.276c-6.346,3.514-15.652,0.317-18.064-6.719
	c-0.959-3.037,3.373-4.874,4.903-3.037c2.481,2.398,4.573,6.956,8.908,6.395c0.882-0.317,1.417-1.451,1.521-2.156
	c0.952-6.438-2.2-7.981-1.28-12.191c0.268-1.231,0.96-3.036-0.562-2.077c-3.054,1.84-6.183,2.717-9.15,1.517
	c-2.17-0.879-3.371-2.717-4.574-4.875c-1.851-4.557-1.289-9.431,2.723-12.791C121.824,30.713,129.53,27.754,135.869,31.111z
	 M119.419,42.944c0.321,2.158,1.203,5.513,3.047,5.513c3.051,0.241,3.933-3.996,5.543-6.714c0.882-1.516,1.201-4.635,0.241-6.077
	c-1.125-1.838-4.576,0-6.426,1.521C120.061,38.707,119.101,40.545,119.419,42.944z M145.613,3.178
	c0.405-3.837,5.457-3.837,8.509-1.917c0.4,0.396,0.805,1.598,0.4,2.717c-2.327,5.036-3.132,10.871-3.132,16.309
	c4.341-0.4,12.843-2.399,11.32,2.637c-1.203,3.919-8.426,3.358-12.68,3.358c-0.727,5.035,1.921,22.509,1.6,27.543
	c-0.076,1.519-1.202,2.719-2.809,2.719c-1.922,0-2.726-0.562-3.367-2.561c-1.685-4.555-1.207-23.227-3.535-27.464
	c0,0-9.678,2.667-10.352-1.879c-0.175-1.175,0.803-2.717,2.006-3.518c3.053-1.52,7.385,0.681,9.313-1.636
	c1.523-1.92,1.125-5.436,1.523-8.153C144.809,8.535,145.293,5.896,145.613,3.178z M156.527,38.39
	c1.279-4.478,4.169-6.795,5.136-9.035c1.922-4.316,7.543-3.037,10.596,0.32c2.085,2.398,3.208,5.116,3.933,7.836
	c1.687,6.314-1.286,11.671-5.542,16.148c-1.764,1.837-5.94,1.917-8.104,0.717C157.088,51.179,154.763,44.466,156.527,38.39z
	 M167.121,35.35c-1.764-1.835-10.438,9.194-2.006,11.115C170.892,47.744,171.454,40.069,167.121,35.35z M181.238,32.056
	c0.96-2.398,5.535-2.316,6.34,0.401c0.562,1.998-0.725,3.996-0.725,6.076c0.32,0.319,0.725,1.357,0.725,0.957
	c2.647-4.397,5.053-9.431,10.836-7.751c4.411,7.114,4.013,15.908,4.411,23.981c0.32,1.356,0.32,3.678-1.039,4.075
	c-2.092,0.561-5.137,1.359-5.464-0.719c-1.039-6.715-0.32-13.109-1.686-19.586c-4.013,4.397-4.575,10.554-7.783,15.909
	c-1.203,2.079-4.655,2.398-5.615,0c-1.123-3.037-0.326-6.792-0.326-10.152C180.912,40.85,179.872,35.734,181.238,32.056z
	 M181.683,86.56c2.53-1.57,4.215-4.363,4.215-7.551c0-4.909-3.995-8.889-8.926-8.889c-4.258,0-7.818,2.97-8.708,6.943H34.738
	c-0.892-3.974-4.452-6.943-8.709-6.943c-4.93,0-8.927,3.979-8.927,8.889c0,3.188,1.686,5.98,4.215,7.551
	c-2.53,1.569-4.215,4.363-4.215,7.551c0,4.909,3.997,8.89,8.927,8.89c4.352,0,7.975-3.103,8.765-7.206h133.414
	c0.789,4.104,4.412,7.206,8.765,7.206c4.931,0,8.926-3.98,8.926-8.89C185.897,90.923,184.213,88.129,181.683,86.56z M44.476,90.642
	H42.79v-3.429h-3.159v3.429h-1.692v-7.945h1.692v3.112h3.159v-3.112h1.686V90.642z M55.219,87.837c0,0.588-0.133,1.102-0.396,1.543
	s-0.644,0.781-1.143,1.017c-0.498,0.236-1.087,0.353-1.768,0.353c-1.025,0-1.822-0.261-2.39-0.784s-0.852-1.241-0.852-2.149v-5.119
	h1.687v4.862c0,0.614,0.123,1.063,0.371,1.35c0.247,0.285,0.656,0.428,1.228,0.428c0.553,0,0.954-0.144,1.203-0.432
	s0.374-0.739,0.374-1.355v-4.853h1.687V87.837z M67.936,90.642H66.36V86.88c0-0.177,0.002-0.383,0.008-0.613
	c0.005-0.233,0.029-0.849,0.073-1.847h-0.049l-2.057,6.222h-1.549l-1.921-6.234h-0.049c0.068,1.269,0.103,2.114,0.103,2.539v3.695
	h-1.511v-7.945h2.303l1.888,6.075h0.033l2.002-6.075h2.303V90.642z M77.064,90.642l-0.578-1.893h-2.909l-0.578,1.893h-1.822
	l2.816-7.978h2.067l2.827,7.978H77.064z M89.204,90.642h-2.15l-3.47-6.012h-0.05c0.069,1.062,0.104,1.817,0.104,2.271v3.74h-1.512
	v-7.945h2.134l3.465,5.95h0.039c-0.055-1.033-0.083-1.764-0.083-2.19v-3.76h1.523V90.642z M98.041,84.074h-2.904v1.746h2.702v1.38
	h-2.702v2.049h2.904v1.393h-4.595v-7.945h4.595V84.074z M111.01,90.131c-0.518,0.414-1.237,0.618-2.163,0.618
	c-0.851,0-1.604-0.159-2.26-0.477v-1.567c0.54,0.24,0.995,0.41,1.367,0.508c0.374,0.098,0.715,0.147,1.023,0.147
	c0.372,0,0.656-0.071,0.854-0.215c0.199-0.14,0.298-0.35,0.298-0.629c0-0.155-0.045-0.296-0.132-0.416
	c-0.088-0.121-0.215-0.238-0.385-0.35c-0.168-0.113-0.514-0.292-1.032-0.538c-0.488-0.229-0.854-0.447-1.099-0.659
	c-0.244-0.209-0.438-0.454-0.585-0.733c-0.144-0.278-0.218-0.605-0.218-0.979c0-0.702,0.24-1.256,0.719-1.658
	c0.478-0.401,1.14-0.604,1.983-0.604c0.414,0,0.809,0.051,1.187,0.148c0.377,0.097,0.771,0.235,1.183,0.413l-0.546,1.31
	c-0.427-0.175-0.778-0.295-1.057-0.365c-0.278-0.067-0.553-0.102-0.82-0.102c-0.32,0-0.566,0.074-0.737,0.222
	c-0.171,0.148-0.257,0.344-0.257,0.582c0,0.148,0.035,0.278,0.104,0.389c0.068,0.11,0.178,0.217,0.329,0.32
	c0.152,0.103,0.509,0.289,1.072,0.557c0.745,0.356,1.257,0.713,1.533,1.068c0.277,0.357,0.415,0.794,0.415,1.312
	C111.788,89.151,111.529,89.717,111.01,90.131z M121.729,89.689c-0.655,0.707-1.594,1.06-2.816,1.06s-2.16-0.353-2.816-1.06
	c-0.653-0.705-0.981-1.72-0.981-3.043s0.328-2.332,0.985-3.029c0.655-0.698,1.598-1.048,2.823-1.048s2.164,0.353,2.813,1.057
	c0.65,0.701,0.975,1.713,0.975,3.031C122.711,87.973,122.382,88.984,121.729,89.689z M129.989,89.347
	c0.559,0,1.237-0.138,2.033-0.418v1.414c-0.654,0.271-1.385,0.406-2.192,0.406c-1.162,0-2.049-0.35-2.663-1.05
	c-0.614-0.704-0.923-1.707-0.923-3.02c0-0.827,0.15-1.551,0.454-2.172c0.302-0.62,0.734-1.098,1.301-1.429
	c0.566-0.333,1.229-0.499,1.99-0.499c0.773,0,1.553,0.188,2.334,0.562l-0.545,1.369c-0.299-0.14-0.599-0.264-0.9-0.369
	c-0.303-0.105-0.599-0.157-0.889-0.157c-0.638,0-1.132,0.238-1.48,0.714c-0.35,0.478-0.524,1.14-0.524,1.991
	C127.984,88.462,128.653,89.347,129.989,89.347z M137.647,90.642h-1.692v-7.945h1.692V90.642z M146.484,84.074h-2.902v1.746h2.702
	v1.38h-2.702v2.049h2.902v1.393h-4.594v-7.945h4.594V84.074z M155.629,84.098h-2.166v6.544h-1.692v-6.544h-2.166v-1.401h6.024
	V84.098z M162.414,87.549v3.093h-1.68v-3.037l-2.646-4.908h1.833l1.653,3.271l1.665-3.271h1.822L162.414,87.549z M75.034,83.896
	c-0.12,0.464-0.463,1.61-1.031,3.44h2.079c-0.534-1.713-0.836-2.684-0.903-2.908C75.112,84.204,75.062,84.027,75.034,83.896z
	 M118.923,83.973c-0.671,0-1.181,0.226-1.521,0.676c-0.342,0.451-0.512,1.121-0.512,2.009c0,0.889,0.168,1.556,0.507,2.006
	c0.338,0.45,0.842,0.673,1.516,0.673c1.351,0,2.024-0.892,2.024-2.679C120.937,84.866,120.266,83.973,118.923,83.973z"/>
</svg>
