<?xml version="1.0" encoding="utf-8"?>
<!-- Generator: Adobe Illustrator 15.1.0, SVG Export Plug-In . SVG Version: 6.00 Build 0)  -->
<!DOCTYPE svg PUBLIC "-//W3C//DTD SVG 1.1//EN" "http://www.w3.org/Graphics/SVG/1.1/DTD/svg11.dtd">
<svg version="1.1" id="Layer_1" xmlns="http://www.w3.org/2000/svg" xmlns:xlink="http://www.w3.org/1999/xlink" x="0px" y="0px"
	 width="100px" height="100px" viewBox="0 0 100 100" enable-background="new 0 0 100 100" xml:space="preserve">
<path fill="#45A3D4" d="M7.476,99.744c-1.927,0-3.741-0.753-5.107-2.12c-1.366-1.366-2.119-3.18-2.119-5.106V15.388
	c0-1.054,0.72-1.795,0.727-1.803L13.612,1.004c0.029-0.027,0.807-0.75,1.825-0.75H67.93c3.986,0,7.229,3.242,7.229,7.227v39.616
	l12.27-12.268c1.363-1.363,3.177-2.114,5.104-2.114c1.929,0,3.741,0.751,5.104,2.115c2.812,2.813,2.812,7.393,0,10.208
	L75.159,67.513v25.003c0,3.985-3.242,7.229-7.228,7.229H7.476z M2.618,92.516c0,2.682,2.182,4.863,4.863,4.863h60.451
	c2.68,0,4.863-2.182,4.866-4.863V69.877l-4.406,4.404c-0.831,0.832-1.864,1.452-2.987,1.794L55.01,78.336c-0.008,0-0.016,0-0.023,0
	c-0.269,0-0.502-0.137-0.672-0.345c-0.148-0.184-0.219-0.385-0.187-0.538l2.267-10.414c0.342-1.118,0.945-2.124,1.787-2.968
	l14.614-14.614V7.481c0-2.682-2.182-4.864-4.862-4.864H18.054v14.205c0,0.652-0.53,1.182-1.182,1.182H2.618V92.516z M60.152,65.445
	l6.865,6.868l25.885-25.881l-6.867-6.869L60.152,65.445z M92.534,35.075c-1.298,0-2.518,0.506-3.436,1.423l-1.394,1.395l6.867,6.869
	l1.396-1.395c0.918-0.917,1.423-2.137,1.423-3.434c0.001-1.297-0.505-2.517-1.422-3.435C95.051,35.581,93.831,35.075,92.534,35.075z
	 M2.262,15.638h13.427V2.272L2.262,15.638z M16.598,84.486c-0.69,0-1.251-0.562-1.251-1.254s0.561-1.254,1.251-1.254h18.136
	c0.334,0,0.649,0.131,0.886,0.368c0.237,0.237,0.367,0.552,0.366,0.885c0,0.692-0.562,1.255-1.252,1.255H16.598z M29.199,71.218
	c-0.691,0-1.253-0.562-1.253-1.252c0-0.691,0.562-1.254,1.253-1.254h17.627c0.333,0,0.647,0.131,0.884,0.368
	c0.237,0.238,0.368,0.553,0.367,0.887c0,0.69-0.562,1.251-1.252,1.251H29.199z M16.598,71.218c-0.69,0-1.251-0.561-1.251-1.25
	c0-0.692,0.561-1.256,1.251-1.256h6.212c0.691,0,1.254,0.562,1.254,1.254c0,0.69-0.562,1.252-1.254,1.252H16.598z M16.598,57.95
	c-0.69,0-1.251-0.562-1.251-1.252s0.561-1.253,1.251-1.253h36.468c0.691,0,1.254,0.562,1.254,1.253s-0.562,1.252-1.254,1.252H16.598
	z M40.614,44.681c-0.691,0-1.254-0.561-1.254-1.249c0.001-0.691,0.563-1.254,1.254-1.254h6.212c0.69,0,1.251,0.562,1.251,1.254
	c0,0.688-0.561,1.249-1.251,1.249H40.614z M16.6,44.681c-0.691,0-1.253-0.561-1.253-1.249c0-0.334,0.13-0.649,0.366-0.886
	c0.237-0.237,0.552-0.368,0.887-0.368h17.625c0.691,0,1.254,0.562,1.254,1.254c0,0.688-0.562,1.249-1.254,1.249H16.6z
	 M16.597,31.413c-0.69,0-1.251-0.561-1.251-1.249c0-0.691,0.561-1.253,1.251-1.253h42.317c0.692,0,1.255,0.562,1.255,1.253
	c0,0.688-0.562,1.249-1.255,1.249H16.597z M51.025,18.004c-0.336,0-0.652-0.131-0.889-0.369c-0.235-0.235-0.365-0.548-0.364-0.881
	c0-0.692,0.562-1.254,1.252-1.254h7.807c0.691,0,1.254,0.562,1.254,1.254c0,0.689-0.562,1.25-1.254,1.25H51.025z M40.779,18.004
	c-0.689,0-1.25-0.561-1.251-1.25c0-0.691,0.561-1.253,1.251-1.253h3.856c0.692,0,1.254,0.562,1.254,1.254
	c0,0.689-0.562,1.25-1.254,1.25H40.779z"/>
</svg>
