<?xml version="1.0" encoding="utf-8"?>
<!-- Generator: Adobe Illustrator 15.1.0, SVG Export Plug-In . SVG Version: 6.00 Build 0)  -->
<!DOCTYPE svg PUBLIC "-//W3C//DTD SVG 1.1//EN" "http://www.w3.org/Graphics/SVG/1.1/DTD/svg11.dtd">
<svg version="1.1" id="Layer_1" xmlns="http://www.w3.org/2000/svg" xmlns:xlink="http://www.w3.org/1999/xlink" x="0px" y="0px"
	 width="35px" height="35px" viewBox="0 0 35 35" enable-background="new 0 0 35 35" xml:space="preserve">
<g>
	<circle fill="#FFFFFF" cx="17.5" cy="17.5" r="5.75"/>
	<path fill="#FFFFFF" d="M34.963,10.023c-0.168-2.518-1.209-4.789-2.812-6.533c-0.205-0.222-0.418-0.436-0.641-0.64
		c-1.744-1.604-4.016-2.645-6.533-2.813V0H24.25h-13.5h-0.726v0.037C7.506,0.205,5.235,1.246,3.49,2.851
		c-0.222,0.204-0.436,0.417-0.64,0.64c-1.604,1.745-2.646,4.016-2.814,6.534H0v0.726v13.5v0.728h0.037
		c0.168,2.52,1.209,4.787,2.814,6.532c0.204,0.224,0.417,0.438,0.64,0.64c1.745,1.604,4.016,2.646,6.534,2.813V35h0.726h13.5h0.728
		v-0.037c2.52-0.168,4.787-1.209,6.533-2.812c0.223-0.205,0.438-0.418,0.639-0.641c1.604-1.744,2.646-4.016,2.813-6.533H35V24.25
		v-13.5v-0.727H34.963z M17.5,26.334c-4.878,0-8.833-3.956-8.833-8.834s3.954-8.833,8.833-8.833s8.834,3.954,8.834,8.833
		S22.378,26.334,17.5,26.334z M26.917,10.333c-1.104,0-2-0.895-2-2c0-1.104,0.896-2,2-2s2,0.896,2,2S28.021,10.333,26.917,10.333z"
		/>
</g>
</svg>
