<?xml version="1.0" encoding="utf-8"?>
<!-- Generator: Adobe Illustrator 15.1.0, SVG Export Plug-In . SVG Version: 6.00 Build 0)  -->
<!DOCTYPE svg PUBLIC "-//W3C//DTD SVG 1.1//EN" "http://www.w3.org/Graphics/SVG/1.1/DTD/svg11.dtd">
<svg version="1.1" id="Layer_1" xmlns="http://www.w3.org/2000/svg" xmlns:xlink="http://www.w3.org/1999/xlink" x="0px" y="0px"
	 width="75px" height="100px" viewBox="0 0 75 100" enable-background="new 0 0 75 100" xml:space="preserve">
<path fill="#FFFFFF" d="M57.09,100c-0.806,0-1.582-0.094-2.373-0.287c-0.162-0.037-0.293-0.07-0.419-0.108
	c-0.866-0.252-1.697-0.628-2.47-1.118c-3.168-2.011-4.61-5.461-5.513-8.241c-0.061-0.185-0.118-0.368-0.176-0.551
	c0,0-4.569-16.363-5.722-21.606c-2.307,8.518-4.628,17-6.043,21.943l-0.09,0.528l-0.15,0.303c-0.436,1.465-1.132,3.444-2.293,5.134
	c-2.181,3.171-4.94,3.926-6.895,3.993c-0.096,0.005-0.198,0.007-0.3,0.007h-0.275l-0.109-0.01c-5.169-0.196-8.469-4.056-9.73-7.332
	c-0.267-0.692-0.476-1.344-0.643-1.868l-0.018-0.057c-0.048-0.15-0.094-0.295-0.14-0.432l-0.558-1.678
	C6.149,69.586,0.957,31.775,0.047,10.001C0.029,9.571,0,8.641,0,8.427C0,3.813,3.71,0,8.102,0c5.069,0,8.087,4.668,8.254,9.063
	c0.398,10.433,3.892,38.836,8.004,51.18l8.157-32.645c1.038-3.779,4.483-6.709,8.377-6.709c0.611,0,1.224,0.065,1.822,0.194
	c0.171,0.033,0.338,0.072,0.505,0.119c2.725,0.751,5.405,3.555,5.859,5.833c1.51,7.564,5.214,25.875,7.55,35.783l3.923-14.208
	l0.085-0.229c0.734-1.988,2.281-3.569,4.245-4.341c0.877-0.342,1.783-0.515,2.702-0.515c4.088,0,7.414,3.334,7.414,7.433
	c0,0.684-0.096,1.364-0.284,2.027L67.675,88.71v0.07l-0.129,0.584c-0.531,2.688-1.79,8.811-7.941,10.337
	C58.803,99.899,57.957,100,57.09,100z"/>
</svg>
