<?xml version="1.0" encoding="utf-8"?>
<!-- Generator: Adobe Illustrator 15.1.0, SVG Export Plug-In . SVG Version: 6.00 Build 0)  -->
<!DOCTYPE svg PUBLIC "-//W3C//DTD SVG 1.1//EN" "http://www.w3.org/Graphics/SVG/1.1/DTD/svg11.dtd">
<svg version="1.1" id="Layer_1" xmlns="http://www.w3.org/2000/svg" xmlns:xlink="http://www.w3.org/1999/xlink" x="0px" y="0px"
	 width="100px" height="100px" viewBox="0 0 100 100" enable-background="new 0 0 100 100" xml:space="preserve">
<g>
	<path fill="#45A3D4" d="M79.096,46.213c-1.637-0.232-3.444-0.354-5.266-0.355c-1.845,0-3.613,0.12-5.267,0.355
		c1.051-1.598,2.055-3.476,2.919-5.468c1.155-2.662,1.966-5.279,2.347-7.517c0.381,2.24,1.191,4.856,2.348,7.517
		C77.046,42.745,78.049,44.623,79.096,46.213z"/>
	<polygon fill="#45A3D4" points="66.525,10.384 60.768,8.167 60.771,11.602 	"/>
	<path fill="#45A3D4" d="M72.482,88.822c-2.705,0-5.253-1.352-6.814-3.616l-0.396-0.569l-0.396,0.568
		c-1.564,2.266-4.113,3.617-6.819,3.617c-2.723,0-5.282-1.364-6.846-3.649l-0.393-0.58l-0.399,0.58
		c-1.562,2.285-4.119,3.649-6.841,3.649c-2.722,0-5.28-1.364-6.842-3.649l-0.396-0.579l-0.397,0.579
		c-1.564,2.285-4.123,3.649-6.844,3.649c-2.71,0-5.263-1.357-6.829-3.631l-0.397-0.575l-0.396,0.576
		c-1.563,2.271-4.116,3.628-6.827,3.63c-0.608-0.002-1.104-0.506-1.104-1.124c0.005-0.619,0.504-1.124,1.111-1.124
		c3.374,0,6.12-2.785,6.122-6.209c0-0.62,0.494-1.124,1.1-1.124c0.609,0,1.104,0.504,1.104,1.124c0,3.424,2.747,6.209,6.122,6.209
		c3.375,0,6.122-2.785,6.125-6.209c0-0.628,0.501-1.139,1.117-1.139c0.615,0,1.115,0.511,1.115,1.139
		c0,3.424,2.748,6.209,6.125,6.209c3.375,0,6.122-2.785,6.122-6.209c0-0.628,0.5-1.139,1.116-1.139c0.615,0,1.115,0.511,1.115,1.139
		c0,3.424,2.748,6.209,6.125,6.209c3.325,0,6.007-2.65,6.104-6.035l-0.009-0.187c0-0.614,0.499-1.124,1.113-1.124
		c0.615,0,1.115,0.51,1.115,1.137l-0.01,0.154c0.096,3.404,2.776,6.055,6.104,6.055c0.61,0,1.106,0.504,1.106,1.124
		S73.093,88.822,72.482,88.822z"/>
	<path fill="#45A3D4" d="M55.505,28.528c1.054-1.604,2.057-3.482,2.92-5.469c1.139-2.625,1.958-5.283,2.344-7.538
		c0.379,2.243,1.191,4.868,2.352,7.538c0.863,1.99,1.866,3.869,2.918,5.469c-1.655-0.237-3.418-0.356-5.247-0.356
		C58.96,28.172,57.15,28.295,55.505,28.528z"/>
	<polygon fill="#45A3D4" points="79.584,28.071 73.826,25.853 73.831,29.29 	"/>
	<path fill="#45A3D4" d="M47.528,44.631c1.017-1.219,1.958-2.743,2.739-4.441c0.939-2.039,1.545-4.125,1.719-5.905h6.301v-3.196
		c0.814-0.025,1.65-0.039,2.486-0.039c0.838,0,1.671,0.013,2.485,0.038v10.356l0.03,0.056c0.632,1.173,1.346,2.245,2.082,3.13
		L47.528,44.631z"/>
	<path fill="#45A3D4" d="M1.448,99.75c-0.661,0-1.198-0.548-1.198-1.221V30.485c0-0.671,0.538-1.218,1.198-1.218h11.648V1.469
		c0-0.672,0.537-1.219,1.197-1.219h84.259c0.315,0,0.613,0.124,0.839,0.35c0.23,0.231,0.357,0.541,0.357,0.87v68.044
		c0,0.672-0.537,1.219-1.198,1.219H86.904v27.797c0,0.673-0.537,1.221-1.197,1.221H1.448z M2.645,97.312h81.867v-26.58H14.293
		c-0.66,0-1.197-0.547-1.197-1.219V31.703H2.645V97.312z M15.49,68.297h81.865V2.688H15.49V68.297z"/>
	<path fill="#45A3D4" d="M33.799,46.185c1.056-1.604,2.06-3.482,2.921-5.468c1.139-2.624,1.958-5.282,2.344-7.536
		c0.379,2.242,1.192,4.866,2.35,7.536c0.868,1.996,1.871,3.874,2.919,5.468c-1.656-0.236-3.424-0.355-5.266-0.355
		C37.226,45.829,35.457,45.949,33.799,46.185z"/>
	<path fill="#45A3D4" d="M60.428,63.473c0.065-0.696,0.098-1.394,0.098-2.076c0-5.423-1.79-9.67-4.076-9.67
		c-2.285,0-4.075,4.247-4.075,9.67c0,0.68,0.032,1.377,0.097,2.076H37.759c-0.649,0-1.178-0.528-1.178-1.178V48.79
		c0.826-0.056,1.662-0.084,2.487-0.084c0.812,0,1.648,0.028,2.487,0.084l-0.001,3.436h5.642v-4.718H65.7v4.718h5.643V48.82
		c0.833-0.056,1.669-0.085,2.488-0.085c0.805,0,1.64,0.029,2.487,0.085v13.475c0,0.649-0.528,1.178-1.178,1.178H60.428z"/>
	<polygon fill="#45A3D4" points="44.825,28.042 39.066,25.823 39.071,29.26 	"/>
</g>
</svg>
