<?xml version="1.0" encoding="utf-8"?>
<!-- Generator: Adobe Illustrator 15.1.0, SVG Export Plug-In . SVG Version: 6.00 Build 0)  -->
<!DOCTYPE svg PUBLIC "-//W3C//DTD SVG 1.1//EN" "http://www.w3.org/Graphics/SVG/1.1/DTD/svg11.dtd">
<svg version="1.1" id="Layer_1" xmlns="http://www.w3.org/2000/svg" xmlns:xlink="http://www.w3.org/1999/xlink" x="0px" y="0px"
	 width="100px" height="80.5px" viewBox="0 0 100 80.5" enable-background="new 0 0 100 80.5" xml:space="preserve">
<path fill="#45A3D4" d="M1.431,80.25c-0.651,0-1.181-0.541-1.181-1.207V1.458c0-0.666,0.53-1.208,1.181-1.208h97.137
	c0.651,0,1.182,0.542,1.183,1.208v77.584c0,0.666-0.53,1.207-1.183,1.207H1.431z M79.812,77.835h17.571V65.51H79.812V77.835z
	 M60.541,77.835h16.984V65.51H60.541V77.835z M41.297,77.835h16.957V65.51H41.297V77.835z M22.026,77.835H39.01V65.51H22.026V77.835
	z M2.614,77.835h17.125V65.51H2.614V77.835z M2.614,63.223h94.771V17.35H2.614V63.223z M79.596,15.063h17.789v-12.4H79.596V15.063z
	 M60.324,15.063h16.984v-12.4H60.324V15.063z M41.08,15.063h16.957v-12.4H41.08V15.063z M21.809,15.063h16.984v-12.4H21.809V15.063z
	 M2.614,15.063h16.907v-12.4H2.614V15.063z"/>
</svg>
