<?xml version="1.0" encoding="utf-8"?>
<!-- Generator: Adobe Illustrator 15.1.0, SVG Export Plug-In . SVG Version: 6.00 Build 0)  -->
<!DOCTYPE svg PUBLIC "-//W3C//DTD SVG 1.1//EN" "http://www.w3.org/Graphics/SVG/1.1/DTD/svg11.dtd">
<svg version="1.1" id="Layer_1" xmlns="http://www.w3.org/2000/svg" xmlns:xlink="http://www.w3.org/1999/xlink" x="0px" y="0px"
	 width="100px" height="80.5px" viewBox="0 0 100 80.5" enable-background="new 0 0 100 80.5" xml:space="preserve">
<path fill="#45A3D4" d="M70.829,80.224c-25.323,0-63.202-0.01-63.202-0.01c-1.541,0-3.019-0.476-4.274-1.375
	c-0.67-0.479-1.251-1.062-1.728-1.731C0.725,75.844,0.25,74.36,0.25,72.818V7.681c0-1.542,0.475-3.024,1.374-4.288
	c0.479-0.671,1.061-1.254,1.728-1.732c1.257-0.9,2.735-1.376,4.274-1.376c0,0,37.88-0.01,63.203-0.01
	c14.568,0,22.055,0.003,22.25,0.009c1.275,0.121,2.514,0.585,3.569,1.342c0.684,0.488,1.273,1.082,1.752,1.765
	c0.883,1.255,1.35,2.725,1.35,4.251v65.212c0,1.526-0.466,2.997-1.348,4.253c-0.482,0.686-1.071,1.278-1.752,1.764
	c-1.059,0.76-2.297,1.225-3.581,1.343C92.884,80.221,85.397,80.224,70.829,80.224z M2.954,72.168c0,2.941,2.389,5.334,5.326,5.334
	h83.8c2.791-0.198,4.964-2.524,4.964-5.297l-0.001-55.824H2.954V72.168z M8.28,2.998c-2.935,0-5.323,2.393-5.323,5.334l0.004,5.334
	h94.09l-0.003-5.371c0-2.771-2.172-5.098-4.945-5.296L8.28,2.998z M69.854,43.82c-0.057-0.024-0.119-0.047-0.287-0.088l-5.314-1.604
	l-2.544-8.154c-0.021-0.101-0.051-0.198-0.101-0.305c-0.154-0.356-0.418-0.575-0.686-0.575s-0.533,0.228-0.686,0.58
	c-0.022,0.052-0.045,0.105-0.049,0.105c-0.002,0-0.004-0.006-0.002-0.017l-0.018,0.132l-2.578,8.231l-5.355,1.613
	c-0.08,0.018-0.16,0.04-0.248,0.077c-0.301,0.123-0.485,0.334-0.485,0.554c0,0.219,0.183,0.427,0.487,0.555
	c0.044,0.021,0.09,0.035,0.062,0.035c-0.006,0-0.013,0-0.021,0l0.123,0.015l5.443,1.644l2.529,8.106
	c0.023,0.123,0.061,0.239,0.107,0.348c0.096,0.217,0.312,0.58,0.685,0.58c0.394,0,0.604-0.394,0.685-0.573
	c0.029-0.074,0.062-0.152,0.07-0.181l0.016-0.088l2.562-8.192l5.352-1.607c0.09-0.021,0.174-0.049,0.256-0.081
	c0.235-0.099,0.485-0.294,0.485-0.556C70.348,44.154,70.165,43.949,69.854,43.82z M43.296,61.354l-1.318-4.218
	c-0.06-0.135-0.165-0.293-0.35-0.293c-0.177,0-0.309,0.214-0.319,0.214c0,0,0-0.002,0-0.007l-0.067,0.173l-0.022,0.104l-1.259,4.031
	L37.166,62.2c-0.114,0.048-0.246,0.138-0.246,0.28c0,0.111,0.081,0.213,0.161,0.246l0.182,0.072l0.044,0.006l2.654,0.805
	l1.318,4.223c0.03,0.068,0.143,0.291,0.345,0.295h0.007c0.154-0.006,0.265-0.105,0.293-0.175l0.068-0.151l1.307-4.188l2.8-0.848
	c0.112-0.045,0.244-0.133,0.244-0.277c0-0.122-0.1-0.225-0.113-0.24L43.296,61.354z M39.077,31.072c0-0.155-0.166-0.247-0.154-0.247
	l-0.147-0.055l-2.741-0.825l-1.321-4.217c-0.041-0.089-0.149-0.29-0.347-0.29c-0.18,0-0.32,0.24-0.329,0.24c0,0,0-0.002,0-0.007
	l-1.341,4.273l-2.793,0.842c-0.248,0.109-0.248,0.261-0.248,0.282c0.002,0.15,0.158,0.243,0.146,0.244l0.15,0.056l2.746,0.826
	l1.318,4.216c0.046,0.111,0.154,0.295,0.35,0.295c0.149,0,0.26-0.104,0.285-0.161l0.072-0.164l1.309-4.187l2.793-0.843
	C38.899,31.321,39.077,31.229,39.077,31.072z M29.802,31.313l0.003,0.001L29.8,31.312L29.802,31.313z M9.994,6.72
	c-0.895,0-1.619,0.725-1.619,1.619c0,0.895,0.725,1.619,1.619,1.619c0.894,0,1.619-0.725,1.619-1.619
	C11.613,7.445,10.888,6.72,9.994,6.72z M24.471,6.72c-0.895,0-1.619,0.725-1.619,1.619c0,0.895,0.725,1.619,1.619,1.619
	c0.894,0,1.619-0.725,1.619-1.619C26.09,7.445,25.365,6.72,24.471,6.72z M17.232,6.72c-0.894,0-1.619,0.725-1.619,1.619
	c0,0.895,0.725,1.619,1.619,1.619s1.619-0.725,1.619-1.619C18.851,7.445,18.126,6.72,17.232,6.72z"/>
</svg>
